<?xml version="1.0" encoding="utf-8"?>
<!-- Generator: Adobe Illustrator 19.0.1, SVG Export Plug-In . SVG Version: 6.00 Build 0)  -->
<svg version="1.1" id="Слой_1" xmlns="http://www.w3.org/2000/svg" xmlns:xlink="http://www.w3.org/1999/xlink" x="0px" y="0px"
	 viewBox="22 65.9 640 710" style="enable-background:new 22 65.9 640 710;" xml:space="preserve">
<style type="text/css">
	.st0{display:none;}
	.st1{display:inline;fill:#8C5D49;stroke:#FFFFFF;stroke-miterlimit:10;}
	.st2{display:inline;fill:#7C3E2D;}
	.st3{display:inline;}
	.st4{fill:none;stroke:#3C3C3B;stroke-width:2;stroke-miterlimit:10;}
	.st5{fill:#575756;}
	.st6{fill:#C6C6C5;stroke:#6F6F6E;stroke-miterlimit:10;}
	.st7{fill:#6F6F6E;stroke:#575756;stroke-miterlimit:10;}
	.st8{fill:#C6C6C5;}
	.st9{clip-path:url(#SVGID_2_);fill:#B29C97;}
	.st10{clip-path:url(#SVGID_4_);fill:none;stroke:#C6C6C5;stroke-miterlimit:10;}
	.st11{fill:none;stroke:#575756;stroke-miterlimit:10;}
	.st12{fill:#C6C6C5;stroke:#1D1D1B;stroke-miterlimit:10;}
	.st13{fill:#FFFFFF;stroke:#8E4C35;stroke-miterlimit:10;}
	.st14{fill:#FF7900;}
	.st15{fill:#F9AB6B;}
	.st16{fill:#B53E02;}
	.st17{fill:none;stroke:#562A17;stroke-miterlimit:10;}
	.st18{fill:#FFFFFF;}
	.st19{fill:#562A17;stroke:#1D1D1B;stroke-linejoin:round;stroke-miterlimit:10;}
	.st20{fill:#1D1D1B;}
	.st21{fill:url(#head-fur_1_);stroke:url(#head-fur_3_);stroke-linejoin:round;stroke-miterlimit:10;}
	.st22{fill:url(#bridge_2_);}
	.st23{fill:#562A17;stroke:#1D1D1B;stroke-miterlimit:10;}
	.st24{fill:#8E4C35;}
	.st25{fill:#FFFFFF;stroke:#1D1D1B;stroke-miterlimit:10;}
	.st26{fill:#562A17;}
	.st27{fill:#8E4C35;stroke:#562A17;stroke-linejoin:round;stroke-miterlimit:10;}
	.st28{fill:url(#first_8_);stroke:url(#first_11_);stroke-linejoin:round;stroke-miterlimit:10;}
	.st29{fill:url(#second_8_);stroke:url(#second_11_);stroke-linejoin:round;stroke-miterlimit:10;}
	.st30{fill:url(#third_7_);stroke:url(#third_9_);stroke-linejoin:round;stroke-miterlimit:10;}
	.st31{fill:#F9AB6B;stroke:#FFFFFF;stroke-linejoin:round;stroke-miterlimit:10;}
	.st32{fill:url(#first_12_);stroke:url(#first_13_);stroke-linejoin:round;stroke-miterlimit:10;}
	.st33{fill:url(#second_12_);stroke:url(#second_13_);stroke-linejoin:round;stroke-miterlimit:10;}
	.st34{fill:url(#third_10_);stroke:url(#third_11_);stroke-linejoin:round;stroke-miterlimit:10;}
	.st35{fill:#8C5D49;}
	.st36{fill:#EDCEB9;}
	.st37{fill:#7C3E2D;}
	.st38{fill:#3C3C3B;}
	.st39{fill:#6F6F6E;}
	.st40{clip-path:url(#SVGID_6_);fill:#B29C97;}
	.st41{clip-path:url(#SVGID_8_);fill:#C6C6C5;}
	.st42{fill:url(#head-fur_4_);}
	.st43{fill:url(#SVGID_9_);}
	.st44{fill:url(#bridge_3_);}
	.st45{fill:url(#first_14_);}
	.st46{fill:url(#SVGID_10_);}
	.st47{fill:url(#second_14_);}
	.st48{fill:url(#SVGID_11_);}
	.st49{fill:url(#third_12_);}
	.st50{fill:url(#SVGID_12_);}
	.st51{fill:url(#first_15_);}
	.st52{fill:url(#SVGID_13_);}
	.st53{fill:url(#second_15_);}
	.st54{fill:url(#SVGID_14_);}
	.st55{fill:url(#third_13_);}
	.st56{fill:url(#SVGID_15_);}
</style>
<g id="original" class="st0">
	<path id="color_7_" class="st1" d="M164.2,218.6c1.7-0.2,4.5-0.9,7.1-3.1c6.4-5.5,4.6-15.2,4.5-15.6c-3.9,1.5-7.9,3-11.8,4.5
		c0.6-1.1,1.7-3.7,1.4-7.1c-0.6-5.8-5.2-8.9-5.9-9.4c-0.7,2.2-1.7,3.6-2.8,4.5c-6.1,5.3-20.1,1.5-35.3-9.3v-1.3
		c-0.3,0.2-0.6,0.5-0.9,0.7c-0.4-0.3-0.8-0.5-1.1-0.8v1.6c-15.2,10.8-29.2,14.7-35.3,9.3c-1.1-0.9-2.1-2.4-2.8-4.5
		c-0.7,0.4-5.3,3.6-5.9,9.4c-0.3,3.4,0.8,6,1.4,7.1c-3.9-1.5-7.9-3-11.8-4.5c-0.1,0.4-1.9,10.1,4.5,15.6c2.6,2.2,5.5,2.9,7.1,3.1
		c-4.3-0.1-8.7-0.2-13-0.3c3.1,6,8.1,14,16.2,21.6c15.5,14.5,32.8,18.8,40.8,20.2V260c8.3-1.5,25.1-5.9,40.2-20.1
		c8.1-7.6,13.2-15.6,16.2-21.6C172.9,218.4,168.6,218.5,164.2,218.6z"/>
	<path id="color_8_" class="st2" d="M155.3,226.1c1.3-0.2,3.6-0.7,5.7-2.5c5.1-4.4,3.6-12.1,3.6-12.4c-3.1,1.2-6.2,2.4-9.4,3.6
		c0.5-0.9,1.4-3,1.1-5.7c-0.5-4.6-4.1-7.1-4.7-7.5c-0.5,1.7-1.4,2.9-2.2,3.6c-4.8,4.2-16,1.2-28.1-7.4v-1.1
		c-0.2,0.2-0.5,0.4-0.7,0.5c-0.3-0.2-0.6-0.4-0.9-0.7v1.3c-12.1,8.6-23.2,11.7-28.1,7.4c-0.9-0.8-1.7-1.9-2.2-3.6
		c-0.5,0.4-4.2,2.8-4.7,7.5c-0.3,2.7,0.6,4.8,1.1,5.7c-3.1-1.2-6.2-2.4-9.4-3.6c-0.1,0.3-1.5,8,3.6,12.4c2.1,1.8,4.4,2.3,5.7,2.5
		c-3.5-0.1-6.9-0.2-10.4-0.2c2.5,4.8,6.5,11.1,12.9,17.2c12.3,11.5,26.1,14.9,32.5,16v-0.2c6.6-1.2,20-4.7,32-16
		c6.4-6,10.5-12.4,12.9-17.2C162.2,225.9,158.7,226,155.3,226.1z"/>
	<g id="usb-cord" class="st3">
		<path id="cord" class="st4" d="M106,268.8c-25.3,0.7-44-6.7-47.7-18.7c-0.1-0.4-2.8-9.6,2.5-15.5c16.2-17.8,83.3,19.4,110,7
			c1.8-0.8,7.6-3.5,10.2-9.5c2.5-5.9,1.5-14.2-3-17.3c-4.9-3.4-12.6,0.2-17,2c-25.2,10.5-57.2,13.1-78.5,5.7
			c-7.1-2.5-17.7-6.2-22.1-15.8c-8.3-18,9.4-47.9,34.1-59.1c1.7-0.8,31.3-13.7,57.2,4.8c20.1,14.4,22.9,37.1,23.3,40.8"/>
		<g id="protection">
			
				<rect id="first_4_" x="99.3" y="266.8" transform="matrix(1 -2.273003e-003 2.273003e-003 1 -0.6104 0.2303)" class="st5" width="3.4" height="3.8"/>
			<rect id="second_4_" x="96.9" y="266.8" class="st5" width="2.1" height="3.7"/>
		</g>
		
			<rect id="plastic_1_" x="172.3" y="185.2" transform="matrix(0.9798 -0.2001 0.2001 0.9798 -34.1314 38.654)" class="st5" width="3.7" height="6"/>
		<g id="usb-plug">
			
				<rect id="metal" x="173" y="199.2" transform="matrix(0.9918 -0.1275 0.1275 0.9918 -24.3526 24.1096)" class="st6" width="6.3" height="6.2"/>
			<path id="plastic" class="st7" d="M178.7,201.1l-5.3,0.7c-0.7,0.1-1.4-0.4-1.5-1.2l-1.3-10.2c-0.1-0.7,0.4-1.4,1.2-1.5l5.3-0.7
				c0.7-0.1,1.4,0.4,1.5,1.2l1.3,10.2C179.9,200.3,179.4,201,178.7,201.1z"/>
		</g>
	</g>
	<g id="mouse" class="st3">
		<path id="color_4_" class="st8" d="M123.9,254.4c11.2,1.4,19.5,8.7,18.4,16.4c-1.1,7.7-11.1,12.8-22.3,11.4
			c-11.2-1.4-19.5-8.7-18.4-16.4C102.6,258.1,112.6,253,123.9,254.4z"/>
		<g id="shadow">
			<g>
				<g>
					<defs>
						<path id="SVGID_1_" d="M123.9,254.4c11.2,1.4,19.5,8.7,18.4,16.4c-1.1,7.7-11.1,12.8-22.3,11.4c-11.2-1.4-19.5-8.7-18.4-16.4
							C102.6,258.1,112.6,253,123.9,254.4z"/>
					</defs>
					<clipPath id="SVGID_2_">
						<use xlink:href="#SVGID_1_"  style="overflow:visible;"/>
					</clipPath>
					<path id="color_5_" class="st9" d="M106.5,276.7c-0.2-0.1-3.1-2.4-2.8-6c0.3-3.2,2.7-4.9,3-5.1c1.3,1,6.4,4.5,13.6,4
						c7.7-0.6,12.3-5.3,13.3-6.4c0.2,0.6,1,2.9,3.5,4.4c2.2,1.3,4.4,1.1,5.1,1c1.7,0.3,3.5,0.6,5.2,0.9l-7.3-27.7l-44.6,5l-0.6,27
						L106.5,276.7z"/>
				</g>
			</g>
			<g>
				<g>
					<defs>
						<path id="SVGID_3_" d="M123.9,254.4c11.2,1.4,19.5,8.7,18.4,16.4c-1.1,7.7-11.1,12.8-22.3,11.4c-11.2-1.4-19.5-8.7-18.4-16.4
							C102.6,258.1,112.6,253,123.9,254.4z"/>
					</defs>
					<clipPath id="SVGID_4_">
						<use xlink:href="#SVGID_3_"  style="overflow:visible;"/>
					</clipPath>
					<path id="light" class="st10" d="M104.8,273.5c-0.7-0.9-2.4-3.5-2.1-6.9c0.2-2.9,1.7-4.8,2.2-5.5c4.7-6.1,16.6-7.3,25.5-3.9
						c2.8,1.1,8.8,3.4,10.4,8.8c0.6,2.2,0.4,4.3,0,5.6"/>
				</g>
			</g>
		</g>
		<g id="lines">
			<path id="right_9_" class="st11" d="M132.9,257.1c-1.5,0.6-3.6,1.6-5.4,3.3c-3.5,3.1-3.9,6.6-4,8.1"/>
			<path id="center" class="st11" d="M123.5,268.4c6.3,0.8,12.5,1.6,18.8,2.5"/>
			<path id="left_9_" class="st11" d="M123.5,268.4c-0.4,1.4-0.9,4.9,1.5,8.8c1.3,2.1,3,3.6,4.3,4.5"/>
		</g>
		<path id="roller" class="st7" d="M129.6,269.3L129.6,269.3c-0.2,1.1-1.2,1.8-2.3,1.7l-5.9-0.8c-1.1-0.1-1.9-1.1-1.7-2.2l0,0
			c0.2-1.1,1.2-1.8,2.3-1.7l5.9,0.8C128.9,267.2,129.7,268.2,129.6,269.3z"/>
		<path id="color_6_" class="st11" d="M123.9,254.4c11.2,1.4,19.5,8.7,18.4,16.4c-1.1,7.7-11.1,12.8-22.3,11.4
			c-11.2-1.4-19.5-8.7-18.4-16.4C102.6,258.1,112.6,253,123.9,254.4z"/>
	</g>
	<g id="fox" class="st3">
		<g id="ears-inside">
			<path id="right" class="st12" d="M120.6,203h36.5c2.1-2.6,7.5-9.9,7.3-20c-0.2-12.5-8.7-24.2-21.8-29.8c-0.1,4.5-0.6,9.6-2,15.3
				C136.4,185.6,126.5,197.1,120.6,203z"/>
			<path id="left" class="st12" d="M120.6,203H84c-2.1-2.6-7.5-9.9-7.3-20c0.2-12.5,8.7-24.2,21.8-29.8c0.1,4.5,0.6,9.6,2,15.3
				C104.7,185.6,114.6,197.1,120.6,203z"/>
		</g>
		<g id="teeth">
			<ellipse id="right_8_" class="st13" cx="126.9" cy="261.7" rx="2.4" ry="5.8"/>
			<ellipse id="left_8_" class="st13" cx="114.3" cy="261.7" rx="2.4" ry="5.8"/>
		</g>
		<g id="head">
			<path id="color_1_" class="st14" d="M161.7,207.2c-4.9-3.9-8-8.1-10-11.3c-2.5-1.9-5.9-4.9-9-9.5c-2.5-3.7-3.9-7.1-4.8-9.8
				c-1.7-1.3-4.5-3.1-8.3-4.3c-3.7-1.2-7-1.3-9.1-1.3c-2.1-0.1-5.4,0.1-9.1,1.3c-3.8,1.2-6.5,3-8.3,4.3c-0.9,2.6-2.3,6.1-4.8,9.8
				c-3.1,4.6-6.5,7.6-9,9.5c-2,3.1-5.1,7.4-10,11.3c-2.9,2.4-5.8,4-8.3,5.3c1.8,4.1,5.2,10.4,11.5,16.5c7.6,7.3,15.5,10.5,20,12
				c1.5,0.9,3,1.8,4.5,2.8c0.5,7.4,2.1,12.6,3.3,15.8c0.8,2.3,1.8,4.2,3.8,5.7c2.3,1.8,5,2.2,6.4,2.3c1.4-0.1,4-0.4,6.4-2.3
				c2-1.5,2.9-3.5,3.8-5.7c1.2-3.1,2.7-8.4,3.3-15.8c1.5-0.9,3-1.8,4.5-2.8c4.5-1.5,12.4-4.7,20-12c6.3-6.1,9.7-12.4,11.5-16.5
				C167.5,211.3,164.6,209.6,161.7,207.2z"/>
			<g id="muzzle">
				<path id="color" class="st15" d="M120.5,233.7c-5.5,0-10.4,3.8-13.7,9.8c0.1,0.1,0.3,0.2,0.4,0.3c0.5,7.4,2.1,12.6,3.3,15.8
					c0.8,2.3,1.8,4.2,3.8,5.7c2.3,1.8,5,2.2,6.4,2.3c1.4-0.1,4-0.4,6.4-2.3c2-1.5,2.9-3.5,3.8-5.7c1.2-3.1,2.7-8.4,3.3-15.8
					c0.1-0.1,0.2-0.1,0.3-0.2C131,237.5,126,233.7,120.5,233.7z"/>
				<g id="stripes">
					<path id="right_1_" class="st16" d="M120.6,233.8c-3.1,0.6-6.3,1.2-9.4,1.8c-0.7-0.4-1.2-0.4-1.5-0.3c-1.7,0.4-2.7,3.7-2.5,8.4
						c-0.1,2.3,0.1,5.2,0.8,8.6c0.6,2.9,1.6,5.3,2.4,7.2c-0.4-2.4-1.5-9.9,2.8-17.5C115.5,237.8,118.6,235.2,120.6,233.8z"/>
					<path id="left_1_" class="st16" d="M120.6,233.8c3.1,0.6,6.3,1.2,9.4,1.8c0.7-0.4,1.2-0.4,1.5-0.3c1.7,0.4,2.7,3.7,2.5,8.4
						c0.1,2.3-0.1,5.2-0.8,8.6c-0.6,2.9-1.6,5.3-2.4,7.2c0.4-2.4,1.5-9.9-2.8-17.5C125.6,237.8,122.6,235.2,120.6,233.8z"/>
				</g>
			</g>
			<path id="line" class="st17" d="M161.7,207.2c-4.9-3.9-8-8.1-10-11.3c-2.5-1.9-5.9-4.9-9-9.5c-2.5-3.7-3.9-7.1-4.8-9.8
				c-1.7-1.3-4.5-3.1-8.3-4.3c-3.7-1.2-7-1.3-9.1-1.3c-2.1-0.1-5.4,0.1-9.1,1.3c-3.8,1.2-6.5,3-8.3,4.3c-0.9,2.6-2.3,6.1-4.8,9.8
				c-3.1,4.6-6.5,7.6-9,9.5c-2,3.1-5.1,7.4-10,11.3c-2.9,2.4-5.8,4-8.3,5.3c1.8,4.1,5.2,10.4,11.5,16.5c7.6,7.3,15.5,10.5,20,12
				c1.5,0.9,3,1.8,4.5,2.8c0.5,7.4,2.1,12.6,3.3,15.8c0.8,2.3,1.8,4.2,3.8,5.7c2.3,1.8,5,2.2,6.4,2.3c1.4-0.1,4-0.4,6.4-2.3
				c2-1.5,2.9-3.5,3.8-5.7c1.2-3.1,2.7-8.4,3.3-15.8c1.5-0.9,3-1.8,4.5-2.8c4.5-1.5,12.4-4.7,20-12c6.3-6.1,9.7-12.4,11.5-16.5
				C167.5,211.3,164.6,209.6,161.7,207.2z"/>
		</g>
		<g id="ears">
			<g id="eras-fur">
				<path id="right_2_" class="st18" d="M145.3,189.3l6.9-14c0.5,1.2,1.1,3.2,1,5.7c-0.1,1.7-0.6,3.1-1,4.1c0.5-0.4,1.1-0.9,1.6-1.5
					c1.2-1.3,1.9-2.6,2.4-3.6c0.3,1.5,0.5,3.4,0.2,5.7c-0.1,1-0.4,2-0.6,2.8c0.9-0.5,1.7-1,2.6-1.5c0.2,0.9,0.7,3.9-1.1,7.1
					c-1.6,2.8-4,4.1-5,4.6c-0.5,0-3.3,0.1-5.4-1.8C144.6,195.1,144,192,145.3,189.3z"/>
				<path id="left_2_" class="st18" d="M95.8,189.3l-6.9-14c-0.5,1.2-1.1,3.2-1,5.7c0.1,1.7,0.6,3.1,1,4.1c-0.5-0.4-1.1-0.9-1.6-1.5
					c-1.2-1.3-1.9-2.6-2.4-3.6c-0.3,1.5-0.5,3.4-0.2,5.7c0.1,1,0.4,2,0.6,2.8c-0.9-0.5-1.7-1-2.6-1.5c-0.2,0.9-0.7,3.9,1.1,7.1
					c1.6,2.8,4,4.1,5,4.6c0.5,0,3.3,0.1,5.4-1.8C96.4,195.1,97,192,95.8,189.3z"/>
			</g>
			<g id="right_4_">
				<path id="right_5_" class="st19" d="M142.7,153.2c1.7,0.6,12.6,5,16.8,16.6c3.7,10.3,0.6,22.2-7.8,30.3c0.1,0.3,0.9,2.2,3,2.8
					c1.1,0.3,2,0.1,2.5,0c1.9-2.3,8.1-10.1,7.7-21C164.3,169.6,155.6,158.3,142.7,153.2z"/>
				<path id="left_6_" class="st19" d="M142.7,153.2c2,3.1,6.9,11.4,6.4,22.8c-0.3,7.3-2.7,12.9-4.4,16c-1.3-1-3.1-2.8-4.5-5.4
					c-2.3-4.1-2.3-8.1-2.3-9.9c1.1-2.8,2.3-6.2,3.1-10C142.2,161.6,142.6,157,142.7,153.2z"/>
				<path id="dark-tip_1_" class="st20" d="M142.5,153.2c1.3,2,2.7,4.6,3.9,7.8c1.5,3.9,2.1,7.5,2.4,10.2c-0.2,0.2-2.1,1.6-4.5,1
					c-1.8-0.5-3.3-1.9-3.8-3.8c0.8-2.4,1.5-5.4,1.9-9C142.6,157.2,142.6,155.1,142.5,153.2z"/>
			</g>
			<g id="left_3_">
				<path id="right_3_" class="st19" d="M98.4,153.2c-2,3.1-6.9,11.4-6.4,22.8c0.3,7.3,2.7,12.9,4.4,16c1.3-1,3.1-2.8,4.5-5.4
					c2.3-4.1,2.3-8.1,2.3-9.9c-1.1-2.8-2.3-6.2-3.1-10C98.9,161.6,98.5,157,98.4,153.2z"/>
				<path id="left_4_" class="st19" d="M98.4,153.2c-1.7,0.6-12.6,5-16.8,16.6c-3.7,10.3-0.6,22.2,7.8,30.3c-0.1,0.3-0.9,2.2-3,2.8
					c-1.1,0.3-2,0.1-2.5,0c-1.9-2.3-8.1-10.1-7.7-21C76.8,169.6,85.5,158.3,98.4,153.2z"/>
				<path id="dark-tip" class="st20" d="M98.4,153.2c-1.3,2-2.7,4.6-3.9,7.8c-1.5,3.9-2.1,7.5-2.4,10.2c0.2,0.2,2.1,1.6,4.5,1
					c1.8-0.5,3.3-1.9,3.8-3.8c-0.8-2.4-1.5-5.4-1.9-9C98.4,157.2,98.3,155.1,98.4,153.2z"/>
			</g>
		</g>
		
			<linearGradient id="head-fur_1_" gradientUnits="userSpaceOnUse" x1="120.6007" y1="215.31" x2="120.6007" y2="164.41" gradientTransform="matrix(1 0 0 1 0 -0.22)">
			<stop  offset="0.2" style="stop-color:#FF7900"/>
			<stop  offset="1" style="stop-color:#B53E02"/>
		</linearGradient>
		
			<linearGradient id="head-fur_3_" gradientUnits="userSpaceOnUse" x1="120.6007" y1="215.81" x2="120.6007" y2="163.91" gradientTransform="matrix(1 0 0 1 0 -0.22)">
			<stop  offset="0.371" style="stop-color:#FF7900"/>
			<stop  offset="1" style="stop-color:#562A17"/>
		</linearGradient>
		<path id="head-fur" class="st21" d="M141.9,187.4c-2.4,1.2-4.8,2.4-7.2,3.6c1.2-1.8,2.9-4.9,3.3-9.1c0.6-6.1-1.8-10.8-3-12.8
			c-1.5,2.6-3,5.2-4.5,7.8c-0.3-1.4-0.8-3.1-1.8-4.9c-2.3-4.2-6-6.6-8-7.7v-0.1h-0.1h-0.1v0.1c-2,1.1-5.7,3.5-8,7.7
			c-1,1.8-1.5,3.6-1.8,4.9c-1.5-2.6-3-5.2-4.5-7.8c-1.2,1.9-3.7,6.6-3,12.8c0.4,4.2,2.1,7.3,3.3,9.1c-2.4-1.2-4.8-2.4-7.2-3.6
			c-0.2,2.3,0,5.8,2.1,9.1c2.6,4.1,6.4,5,11.5,9.4c2.2,1.8,5.1,4.7,7.7,9v0.2l0.1-0.1l0.1,0.1v-0.2c2.7-4.3,5.6-7.2,7.7-9
			c5.1-4.4,8.8-5.3,11.5-9.4C141.9,193.2,142.1,189.7,141.9,187.4z"/>
		<g id="nose-bridge_1_">
			
				<linearGradient id="bridge_2_" gradientUnits="userSpaceOnUse" x1="120.5" y1="264.21" x2="120.5" y2="225.3767" gradientTransform="matrix(1 0 0 1 0 -0.22)">
				<stop  offset="0.2419" style="stop-color:#B53E02"/>
				<stop  offset="1" style="stop-color:#FF7900"/>
			</linearGradient>
			<path id="bridge" class="st22" d="M126.9,246.3c0.6-1.7,1.1-3.9,1.3-6.3c0.2-1.5,0.2-2.9,0.2-4.2c0.3-3.2,0.6-6.4,0.8-9.7
				c-0.4,0.3-0.8,0.7-1.3,1c-0.8,0.5-1.5,0.9-2.2,1.2c-0.1-1.1-0.2-2.1-0.3-3.2c-0.1,0.3-0.3,1.8-1.7,2.8c-1.4,1.1-2.9,1-3.2,1
				c-0.3,0-1.8,0.1-3.2-1c-1.3-1.1-1.6-2.5-1.7-2.8c-0.1,1.1-0.2,2.1-0.3,3.2c-0.6-0.3-1.4-0.7-2.2-1.2c-0.5-0.3-0.9-0.7-1.3-1
				c0.3,3.2,0.6,6.4,0.8,9.7c0,1.3,0,2.6,0.2,4.2c0.3,2.5,0.8,4.6,1.3,6.3c-0.5-0.4-1-0.8-1.5-1.2c-0.3,3.1-0.2,8.5,2.5,14
				c0.7,1.5,1.6,2.8,2.4,4l3,0.9l3-0.9c0.8-1.1,1.7-2.4,2.4-4c2.7-5.5,2.8-10.9,2.5-14C127.9,245.5,127.4,245.9,126.9,246.3z"/>
			<path id="nose" class="st23" d="M126.4,258.7c-0.6,0-1.3,0-1.9,0c-0.3,0.5-0.9,1.3-1.7,2h-4.4c-0.9-0.7-1.4-1.5-1.7-2
				c-0.6,0-1.3,0-1.9,0c-0.2,2.2,0.2,3.4,0.6,4c0.4,0.8,0.6,0.5,2.3,2.5c0.6,0.7,0.9,1.2,1.6,1.6c0.5,0.4,1,0.5,1.3,0.6
				c0.3-0.1,0.8-0.3,1.3-0.6c0.7-0.5,1.1-0.9,1.6-1.6c1.7-2,1.9-1.7,2.3-2.5C126.2,262.1,126.6,260.9,126.4,258.7z"/>
			<path id="nose-light" class="st24" d="M120.6,261.7c-1.3,0-2.6,0-3.9,0c0.1,0.3,0.3,1,1,1.6c1.2,1,2.7,0.7,2.9,0.7
				c0.2,0,1.7,0.4,2.9-0.7c0.6-0.6,0.9-1.2,1-1.6C123.2,261.7,121.9,261.7,120.6,261.7z"/>
		</g>
		<g id="eyes">
			<g id="right_6_">
				<path id="fur-under-eye_1_" class="st15" d="M129.4,235.3c0.8-3.2,3.1-10.5,10-15.8c2.1-1.6,4.2-2.7,6.1-3.5
					c2.7-1.2,3.7-0.9,4.1-0.5c2.1,2.2-4.9,16-16.2,19.2C131.6,235.1,130.2,235.3,129.4,235.3z"/>
				<path id="eye_1_" class="st25" d="M129.4,235.3c0.5-1.6,0.9-3,1.2-4c2.7-9,3.3-11,6.3-12.7c1.4-0.8,4-2,8.6-2.6
					c-1.9,1.2-4.4,3.2-6.3,5.8c-1.8,2.4-1.8,3.8-3.2,6.3C134.8,229.9,133,232.4,129.4,235.3z"/>
				<path id="fur-above-eye_1_" class="st16" d="M135.6,210.2c-0.4-0.3-2-1.3-4.3-1.4c-2.7-0.1-4.4,1.1-4.8,1.4c0,3,0,6.1,0,9.1
					c1.1-0.2,3.7-0.8,6-2.7C135.5,214.1,135.6,210.9,135.6,210.2z"/>
			</g>
			<g id="left_5_">
				<path id="fur-under-eye" class="st15" d="M111.9,235.7c-0.8-3.2-3.1-10.5-10-15.8c-2.1-1.6-4.2-2.7-6.1-3.5
					c-2.7-1.2-3.7-0.9-4.1-0.5c-2.1,2.2,4.9,16,16.2,19.2C109.6,235.5,111.1,235.7,111.9,235.7z"/>
				<path id="eye" class="st25" d="M111.8,235.3c-0.5-1.6-0.9-3-1.2-4c-2.7-9-3.3-11-6.3-12.7c-1.4-0.8-4-2-8.6-2.6
					c1.9,1.2,4.4,3.2,6.3,5.8c1.8,2.4,1.8,3.8,3.2,6.3C106.3,229.9,108.2,232.4,111.8,235.3z"/>
				<path id="fur-above-eye" class="st16" d="M105.5,210.2c0.4-0.3,2-1.3,4.3-1.4c2.7-0.1,4.4,1.1,4.8,1.4c0,3,0,6.1,0,9.1
					c-1.1-0.2-3.7-0.8-6-2.7C105.6,214.1,105.5,210.9,105.5,210.2z"/>
			</g>
		</g>
		<g id="spotes">
			<circle id="small" class="st26" cx="146.3" cy="228.1" r="0.9"/>
			<circle id="middle" class="st26" cx="151.3" cy="224.4" r="1.2"/>
			<circle id="large" class="st26" cx="154" cy="219.8" r="1.4"/>
			<path id="bridge-spot" class="st15" d="M126.4,225.7c-0.5,0.4-1.5,1.2-3.2,1.7c-1.1,0.3-2,0.4-2.7,0.5c-0.7,0-1.7-0.2-2.7-0.5
				c-1.6-0.5-2.7-1.3-3.2-1.7c0.2,1.6,0.9,4.1,2.9,6.7c0.9,1.2,2,2.1,2.9,2.9v0.1l0,0l0,0v-0.1c1-0.8,2-1.7,2.9-2.9
				C125.6,229.7,126.2,227.3,126.4,225.7z"/>
		</g>
		<g id="paws">
			<g id="right_7_">
				<path id="color_3_" class="st27" d="M161.5,231.2c5-1.6,10.5,3.9,10.9,4.3c6.7,6.8,4,17.7,3,21.9c-0.4,1.7-1.9,7-5.9,10.5
					c-1.9,1.6-3.5,2.2-4.8,2.4c-1,0.2-2.7,0.4-4.1-0.6c-1.2-0.9-1.6-2.1-1.8-2.5c-0.6,0.8-1.3,1.5-1.9,2.3c-0.5,0.2-3.4,1.2-6.5-0.4
					c-2.7-1.4-3.7-3.9-3.9-4.5c-1.2,0.4-2.4,0.4-3.5,0.1c-0.7-0.2-2-0.6-2.9-2c-0.9-1.5-0.6-3-0.5-3.3c3.2-2.3,8-6.3,12.1-12.4
					C157.2,239.2,156.9,232.7,161.5,231.2z"/>
				<g id="bones_1_">
					
						<linearGradient id="first_8_" gradientUnits="userSpaceOnUse" x1="581.5342" y1="266.1614" x2="581.5342" y2="248.3493" gradientTransform="matrix(-1 0 0 1 750.2794 -0.22)">
						<stop  offset="0" style="stop-color:#F9AB6B"/>
						<stop  offset="1" style="stop-color:#8E4C35"/>
					</linearGradient>
					
						<linearGradient id="first_11_" gradientUnits="userSpaceOnUse" x1="581.5342" y1="266.6614" x2="581.5342" y2="247.8493" gradientTransform="matrix(-1 0 0 1 750.2794 -0.22)">
						<stop  offset="0" style="stop-color:#FFFFFF"/>
						<stop  offset="1" style="stop-color:#8E4C35"/>
					</linearGradient>
					<path id="first_2_" class="st28" d="M173.8,250.6c0-0.3,0-1.7-0.9-2c-0.6-0.2-1.4,0.1-1.9,0.8c-0.1-0.7-0.6-1.2-1.2-1.3
						c-0.7-0.1-1.3,0.4-1.5,0.9c-0.3,0.8,0.4,1.4,0.7,2.6c0.5,1.5,0.2,2.8,0,3.6c-0.5,2.1-2,4.8-4,5.8c-0.1,0.1-0.6,0.3-1,0.8
						c-0.1,0.1-0.5,0.7-0.2,1.4c0.2,0.6,0.9,0.8,1.2,0.9c0.8,0.2,1-0.1,1.6,0.1c0.9,0.3,0.7,1.3,1.5,1.6c0.7,0.2,1.7-0.3,2.1-1
						c0,0,0.4-0.8,0.2-1.8c-0.1-0.4-0.2-0.6-0.3-0.8c-0.4-1.2,1.3-2.9,1.9-3.6c0.9-1.1,1.8-3.1,1.5-6.8
						C173.6,251.7,173.8,251.2,173.8,250.6z"/>
					
						<linearGradient id="second_8_" gradientUnits="userSpaceOnUse" x1="590.6683" y1="264.7972" x2="590.6683" y2="247.3461" gradientTransform="matrix(-1 0 0 1 750.2794 -0.22)">
						<stop  offset="0" style="stop-color:#F9AB6B"/>
						<stop  offset="1" style="stop-color:#8E4C35"/>
					</linearGradient>
					
						<linearGradient id="second_11_" gradientUnits="userSpaceOnUse" x1="590.6683" y1="265.2972" x2="590.6683" y2="246.8461" gradientTransform="matrix(-1 0 0 1 750.2794 -0.22)">
						<stop  offset="0" style="stop-color:#FFFFFF"/>
						<stop  offset="1" style="stop-color:#8E4C35"/>
					</linearGradient>
					<path id="second_2_" class="st29" d="M166.2,249.2c0-0.2,0.2-1.4-0.6-1.7c-0.6-0.2-1.4,0.1-2,0.7c0-0.5-0.4-1-1-1.1
						s-1.3,0.4-1.6,0.8c-0.4,0.6,0.1,1.2,0.3,2.2c0.2,1.3-0.3,2.5-0.7,3.2c-0.9,2-3.2,4.7-5.6,5.7c-0.2,0.1-0.8,0.3-1.3,0.8
						c-0.1,0.1-0.7,0.8-0.7,1.5c0.1,0.7,0.8,1,1,1.1c0.8,0.3,1.2-0.1,1.8,0.2c0.9,0.4,0.5,1.5,1.3,1.9c0.8,0.3,2.1-0.2,2.7-1.1
						c0,0,0.7-0.9,0.6-2c0-0.5-0.1-0.7-0.1-0.9c-0.2-1.3,2-3,2.8-3.7c1.2-1.1,2.5-3,2.6-6.4C165.8,250.2,166.1,249.8,166.2,249.2z"
						/>
					
						<linearGradient id="third_7_" gradientUnits="userSpaceOnUse" x1="598.4802" y1="260.5132" x2="598.4802" y2="245.4667" gradientTransform="matrix(-1 0 0 1 750.2794 -0.22)">
						<stop  offset="0" style="stop-color:#F9AB6B"/>
						<stop  offset="1" style="stop-color:#8E4C35"/>
					</linearGradient>
					
						<linearGradient id="third_9_" gradientUnits="userSpaceOnUse" x1="598.4802" y1="261.0132" x2="598.4802" y2="244.9667" gradientTransform="matrix(-1 0 0 1 750.2794 -0.22)">
						<stop  offset="0" style="stop-color:#FFFFFF"/>
						<stop  offset="1" style="stop-color:#8E4C35"/>
					</linearGradient>
					<path id="third_2_" class="st30" d="M158.2,247.9c0.1-0.2,0.5-1.2,0.2-1.6c-0.3-0.3-0.8-0.2-1.4,0.2c0.2-0.5,0.1-1-0.3-1.2
						c-0.4-0.2-1,0.1-1.3,0.4c-0.5,0.5-0.3,1.2-0.5,2.2c-0.2,1.2-1,2.2-1.4,2.9c-1.2,1.7-3.6,4-6,4.9c-0.2,0.1-0.8,0.3-1.4,0.8
						c-0.2,0.1-0.9,0.8-1,1.4c-0.1,0.6,0.5,0.8,0.8,0.9c0.7,0.2,1.1-0.2,1.5,0c0.1,0,0.2,0.1,0.2,0.1c0.3,0.4,0.1,0.8,0.3,1.2
						c0.3,0.5,1.2,0.4,1.7,0.3c0.2,0,0.9-0.2,1.3-0.8c0.3-0.6,0.3-1.5,0.4-2c0,0,0-0.1,0.1-0.3c0-0.2,0-0.3,0.1-0.4
						c0.2-1,2.1-2.4,2.8-2.9c1-0.8,2.3-2.2,3.4-5C157.7,248.6,158,248.3,158.2,247.9z"/>
				</g>
				<g id="claws_1_">
					<path id="first_3_" class="st31" d="M164.5,265.8c1.2,0.4,1.9,1.9,1.5,3.3c-0.2,0.5-0.8,1.7-2.1,2.5c-2,1.2-4,0.6-4.4,0.5
						c0.6-1.4,1.1-2.8,1.7-4.3C161.6,266.2,163.2,265.3,164.5,265.8z"/>
					<path id="second_3_" class="st31" d="M153.7,264.7c1.2,0.4,1.9,1.9,1.5,3.3c-0.2,0.5-0.8,1.7-2.1,2.5c-2,1.2-4,0.6-4.4,0.5
						c0.6-1.4,1.1-2.8,1.7-4.3C150.7,265.1,152.3,264.3,153.7,264.7z"/>
					<path id="third_3_" class="st31" d="M145.4,261.2c-0.5-1.2-2-1.8-3.3-1.3c-0.5,0.2-1.6,0.9-2.4,2.3c-1.1,2.1-0.3,4.1-0.2,4.4
						c1.4-0.6,2.8-1.3,4.1-1.9C145.2,264.2,146,262.5,145.4,261.2z"/>
				</g>
			</g>
			<g id="left_7_">
				<path id="color_2_" class="st27" d="M79.4,231.2c-5-1.6-10.5,3.9-10.9,4.3c-6.7,6.8-4,17.7-3,21.9c0.4,1.7,1.9,7,5.9,10.5
					c1.9,1.6,3.5,2.2,4.8,2.4c1,0.2,2.7,0.4,4.1-0.6c1.2-0.9,1.6-2.1,1.8-2.5c0.6,0.8,1.3,1.5,1.9,2.3c0.5,0.2,3.4,1.2,6.5-0.4
					c2.7-1.4,3.7-3.9,3.9-4.5c1.2,0.4,2.4,0.4,3.5,0.1c0.7-0.2,2-0.6,2.9-2c0.9-1.5,0.6-3,0.5-3.3c-3.2-2.3-8-6.3-12.1-12.4
					C83.8,239.2,84.1,232.7,79.4,231.2z"/>
				<g id="bones">
					
						<linearGradient id="first_12_" gradientUnits="userSpaceOnUse" x1="72.2548" y1="266.1614" x2="72.2548" y2="248.3493" gradientTransform="matrix(1 0 0 1 0 -0.22)">
						<stop  offset="0" style="stop-color:#F9AB6B"/>
						<stop  offset="1" style="stop-color:#8E4C35"/>
					</linearGradient>
					
						<linearGradient id="first_13_" gradientUnits="userSpaceOnUse" x1="72.2548" y1="266.6614" x2="72.2548" y2="247.8493" gradientTransform="matrix(1 0 0 1 0 -0.22)">
						<stop  offset="0" style="stop-color:#FFFFFF"/>
						<stop  offset="1" style="stop-color:#8E4C35"/>
					</linearGradient>
					<path id="first" class="st32" d="M67.2,250.6c0-0.3,0-1.7,0.9-2c0.6-0.2,1.4,0.1,1.9,0.8c0.1-0.7,0.6-1.2,1.2-1.3
						c0.7-0.1,1.3,0.4,1.5,0.9c0.3,0.8-0.4,1.4-0.7,2.6c-0.5,1.5-0.2,2.8,0,3.6c0.5,2.1,2,4.8,4,5.8c0.1,0.1,0.6,0.3,1,0.8
						c0.1,0.1,0.5,0.7,0.2,1.4c-0.2,0.6-0.9,0.8-1.2,0.9c-0.8,0.2-1-0.1-1.6,0.1c-0.9,0.3-0.7,1.3-1.5,1.6c-0.7,0.2-1.7-0.3-2.1-1
						c0,0-0.4-0.8-0.2-1.8c0.1-0.4,0.2-0.6,0.3-0.8c0.4-1.2-1.3-2.9-1.9-3.6c-0.9-1.1-1.8-3.1-1.5-6.8
						C67.4,251.7,67.2,251.2,67.2,250.6z"/>
					
						<linearGradient id="second_12_" gradientUnits="userSpaceOnUse" x1="81.3889" y1="264.7972" x2="81.3889" y2="247.3461" gradientTransform="matrix(1 0 0 1 0 -0.22)">
						<stop  offset="0" style="stop-color:#F9AB6B"/>
						<stop  offset="1" style="stop-color:#8E4C35"/>
					</linearGradient>
					
						<linearGradient id="second_13_" gradientUnits="userSpaceOnUse" x1="81.3889" y1="265.2972" x2="81.3889" y2="246.8461" gradientTransform="matrix(1 0 0 1 0 -0.22)">
						<stop  offset="0" style="stop-color:#FFFFFF"/>
						<stop  offset="1" style="stop-color:#8E4C35"/>
					</linearGradient>
					<path id="second" class="st33" d="M74.8,249.2c0-0.2-0.2-1.4,0.6-1.7c0.6-0.2,1.4,0.1,2,0.7c0-0.5,0.4-1,1-1.1
						c0.6-0.1,1.3,0.4,1.6,0.8c0.4,0.6-0.1,1.2-0.3,2.2c-0.2,1.3,0.3,2.5,0.7,3.2c0.9,2,3.2,4.7,5.6,5.7c0.2,0.1,0.8,0.3,1.3,0.8
						c0.1,0.1,0.7,0.8,0.7,1.5c-0.1,0.7-0.8,1-1,1.1c-0.8,0.3-1.2-0.1-1.8,0.2c-0.9,0.4-0.5,1.5-1.3,1.9c-0.8,0.3-2.1-0.2-2.7-1.1
						c0,0-0.7-0.9-0.6-2c0-0.5,0.1-0.7,0.1-0.9c0.2-1.3-2-3-2.8-3.7c-1.2-1.1-2.5-3-2.6-6.4C75.2,250.2,74.9,249.8,74.8,249.2z"/>
					
						<linearGradient id="third_10_" gradientUnits="userSpaceOnUse" x1="89.2007" y1="260.5132" x2="89.2007" y2="245.4667" gradientTransform="matrix(1 0 0 1 0 -0.22)">
						<stop  offset="0" style="stop-color:#F9AB6B"/>
						<stop  offset="1" style="stop-color:#8E4C35"/>
					</linearGradient>
					
						<linearGradient id="third_11_" gradientUnits="userSpaceOnUse" x1="89.2007" y1="261.0132" x2="89.2007" y2="244.9667" gradientTransform="matrix(1 0 0 1 0 -0.22)">
						<stop  offset="0" style="stop-color:#FFFFFF"/>
						<stop  offset="1" style="stop-color:#8E4C35"/>
					</linearGradient>
					<path id="third" class="st34" d="M82.8,247.9c-0.1-0.2-0.5-1.2-0.2-1.6c0.3-0.3,0.8-0.2,1.4,0.2c-0.2-0.5-0.1-1,0.3-1.2
						c0.4-0.2,1,0.1,1.3,0.4c0.5,0.5,0.3,1.2,0.5,2.2c0.2,1.2,1,2.2,1.4,2.9c1.2,1.7,3.6,4,6,4.9c0.2,0.1,0.8,0.3,1.4,0.8
						c0.2,0.1,0.9,0.8,1,1.4c0.1,0.6-0.5,0.8-0.8,0.9c-0.7,0.2-1.1-0.2-1.5,0c-0.1,0-0.2,0.1-0.2,0.1c-0.3,0.4-0.1,0.8-0.3,1.2
						c-0.3,0.5-1.2,0.4-1.7,0.3c-0.2,0-0.9-0.2-1.3-0.8c-0.3-0.6-0.3-1.5-0.4-2c0,0,0-0.1-0.1-0.3c0-0.2,0-0.3-0.1-0.4
						c-0.2-1-2.1-2.4-2.8-2.9c-1-0.8-2.3-2.2-3.4-5C83.2,248.6,83,248.3,82.8,247.9z"/>
				</g>
				<g id="claws">
					<path id="first_1_" class="st31" d="M76.4,265.8c-1.2,0.4-1.9,1.9-1.5,3.3c0.2,0.5,0.8,1.7,2.1,2.5c2,1.2,4,0.6,4.4,0.5
						c-0.6-1.4-1.1-2.8-1.7-4.3C79.4,266.2,77.8,265.3,76.4,265.8z"/>
					<path id="second_1_" class="st31" d="M87.3,264.7c-1.2,0.4-1.9,1.9-1.5,3.3c0.2,0.5,0.8,1.7,2.1,2.5c2,1.2,4,0.6,4.4,0.5
						c-0.6-1.4-1.1-2.8-1.7-4.3C90.3,265.1,88.7,264.3,87.3,264.7z"/>
					<path id="third_1_" class="st31" d="M95.6,261.2c0.5-1.2,2-1.8,3.3-1.3c0.5,0.2,1.6,0.9,2.4,2.3c1.1,2.1,0.3,4.1,0.2,4.4
						c-1.4-0.6-2.8-1.3-4.1-1.9C95.8,264.2,95,262.5,95.6,261.2z"/>
				</g>
			</g>
		</g>
	</g>
</g>
<g id="original_1_">
	<g>
		<path id="color_10_" class="st35" d="M565.5,452.8c8.4-1.1,22.9-4.5,36-15.7c32.5-27.9,23.2-76.4,22.7-78.4
			c-19.8,7.6-39.6,15.2-59.5,22.8c3-5.6,8.8-18.8,7.1-35.7c-3-29.2-26.3-44.9-29.7-47.1c-3.4,11-8.7,18.1-14.1,22.8
			c-30.8,26.8-101.3,7.3-178.2-46.8l0.1-6.7c-1.6,1.2-3.1,2.3-4.7,3.4c-1.9-1.4-3.8-2.7-5.7-4.1l0.1,8.1
			c-76.9,54.1-147.5,73.6-178.2,46.8c-5.5-4.8-10.7-11.9-14.1-22.8c-3.4,2.2-26.6,17.9-29.7,47.1c-1.8,16.9,4.1,30,7.1,35.7
			c-19.8-7.6-39.6-15.2-59.5-22.8c-0.4,2.1-9.8,50.6,22.7,78.4c13.1,11.2,27.6,14.6,36,15.7c-21.9-0.5-43.8-1-65.7-1.4
			c15.6,30.1,41.1,70.3,82,108.4c78.2,72.9,165.5,94.2,206.1,101.3v-1.3c41.9-7.7,126.8-29.7,202.9-100.7
			c40.9-38.1,66.4-78.3,82-108.4C609.3,451.8,587.4,452.3,565.5,452.8z"/>
		<path class="st36" d="M348.8,664.8l-2.9-0.5c-55.1-9.6-135.8-35.2-207.4-101.9c-33.5-31.2-61.2-67.9-82.6-109.2l-1.9-3.8l49.7,1.1
			c-6.4-2.8-12.3-6.4-17.5-10.8c-33.9-29.1-24-78.7-23.5-80.8l0.6-2.9l56.4,21.6c-3.3-8-6-18.8-4.7-31.4
			c3.1-29.4,26.2-45.9,30.8-48.9l2.8-1.8l1,3.2c2.9,9.2,7.4,16.5,13.4,21.7c29.3,25.5,97.5,7.3,174.1-46.2l-0.1-11.9l4.1,3
			c1.4,1,2.8,2,4.2,3c1-0.8,2.1-1.5,3.2-2.3l4.1-3l-0.1,10.4c76.5,53.6,144.8,71.7,174,46.2c6-5.2,10.5-12.5,13.4-21.7l1-3.2
			l2.8,1.8c4.6,3,27.7,19.5,30.8,48.9c1.3,12.6-1.4,23.4-4.7,31.4l56.4-21.6l0.6,2.9c0.4,2.1,10.3,51.8-23.5,80.8
			c-5.2,4.4-11.1,8.1-17.5,10.8l49.7-1.1l-1.9,3.8c-21.4,41.3-49.1,78-82.5,109.1c-69.7,65-148,90.8-202.2,101L348.8,664.8z
			 M62.4,454.7c20.8,39.3,47.6,74.2,79.5,104c69.5,64.8,147.6,90.2,201.9,100.1v-0.4l2-0.4c53.5-9.8,131.9-35.1,201.7-100.1
			c31.9-29.8,58.7-64.7,79.5-104l-61.4,1.3l-0.4-5c9.3-1.3,22.8-4.9,34.7-15.1c27.1-23.3,23.9-62.1,22.4-73.1l-62.8,24.1l3.1-5.9
			c3.9-7.5,8.3-19.6,6.8-34.2c-2.4-23.4-18.7-38-25.9-43.4c-3.2,8.6-7.8,15.5-13.8,20.7c-31.2,27.2-102.4,8.9-181.4-46.7l-1.1-0.8
			v-3l-2.1,1.5l-1.5-1.1c-0.5-0.4-1.1-0.8-1.6-1.2v4.4l-1.1,0.8c-78.9,55.5-150.1,73.9-181.4,46.7c-6-5.2-10.6-12.2-13.8-20.7
			c-7.2,5.4-23.4,20-25.9,43.4c-1.5,14.7,2.8,26.7,6.8,34.2l3.1,5.9l-62.8-24.1c-1.5,10.9-4.8,49.8,22.4,73.1
			c11.9,10.2,25.4,13.8,34.7,15.1l-0.4,5L62.4,454.7z"/>
	</g>
	<path id="color_16_" class="st37" d="M520.3,490.3c6.7-0.9,18.3-3.6,28.6-12.5c25.9-22.2,18.4-60.8,18.1-62.4
		c-15.8,6-31.5,12.1-47.3,18.1c2.4-4.5,7-14.9,5.6-28.4c-2.4-23.2-20.9-35.7-23.6-37.5c-2.7,8.7-6.9,14.4-11.2,18.2
		c-24.5,21.3-80.6,5.8-141.8-37.2v-5.3c-1.2,0.9-2.5,1.8-3.7,2.7c-1.5-1.1-3-2.2-4.5-3.3l0.1,6.5c-61.2,43.1-117.3,58.6-141.8,37.3
		c-4.4-3.8-8.5-9.4-11.2-18.2c-2.7,1.8-21.2,14.3-23.6,37.5c-1.4,13.4,3.3,23.9,5.6,28.4c-15.8-6-31.5-12.1-47.3-18.1
		c-0.3,1.6-7.8,40.2,18.1,62.4c10.4,8.9,22,11.6,28.6,12.5c-17.4-0.4-34.8-0.8-52.3-1.1c12.4,24,32.7,56,65.2,86.3
		c62.2,58,131.7,74.9,164,80.6v-1c33.3-6.1,100.8-23.6,161.4-80.1c32.5-30.3,52.8-62.3,65.2-86.3
		C555.2,489.6,537.8,489.9,520.3,490.3z"/>
	<g id="usb-cord_1_">
		<path class="st38" d="M254.8,710.1c-121.3,0-210.2-37.5-228.6-97.5c-0.6-2.1-15.2-51,13.7-82.7c44.2-48.5,155.9-20.7,274.1,8.7
			c107.8,26.8,219.3,54.6,282.8,25.2c9.1-4.2,36.7-17,48.8-45.1c12.4-28.9,6.1-67.5-13.4-80.9c-21-14.5-54.9-0.3-77.3,9l-3.7,1.5
			c-131.8,54.5-292.5,66-399.9,28.6C114.9,464.2,60,445.1,37,395.2c-15.4-33.3-14.5-75.3,2.8-121.3c28.5-76.2,95.9-147.6,171.8-182
			c6.5-2.9,159.6-70.6,293.6,24.8c97.9,69.7,116.4,177.2,119.8,208.5l-10,1.1c-3.2-30.3-21.2-134.2-115.7-201.5
			C370,32.8,221.9,98.2,215.7,101C142.2,134.4,76.8,203.6,49.2,277.4c-16.2,43.5-17.3,82.8-3,113.6c21.3,46,73.7,64.3,108.4,76.4
			c103.7,36.2,265.2,24.5,392.8-28.3l3.7-1.5c23-9.6,61.4-25.6,87-8c25.9,17.9,29.7,63.4,16.9,93.1c-13.6,31.7-43.9,45.7-53.8,50.3
			c-66.7,30.8-180,2.7-289.5-24.6c-115.2-28.7-224-55.7-264.2-11.7c-25.1,27.5-11.7,72.5-11.5,73c17.9,58.3,110.4,93.6,235.6,90.2
			l0.3,10C266.1,710,260.4,710.1,254.8,710.1z"/>
		<g id="protection_1_">
			
				<rect id="first_9_" x="237.9" y="694.7" transform="matrix(1 -2.260854e-003 2.260854e-003 1 -1.5912 0.5592)" class="st38" width="17.3" height="18.8"/>
			
				<rect id="second_9_" x="225.4" y="694.7" transform="matrix(1 -2.260851e-003 2.260851e-003 1 -1.5912 0.5235)" class="st38" width="10.7" height="18.8"/>
		</g>
		<polygon id="plastic_3_" class="st38" points="627.8,313.1 609.7,316.8 603.6,287.1 621.7,283.4 		"/>
		<g id="usb-plug_1_">
			<g>
				<polygon id="metal_2_" class="st8" points="643.4,384.5 611.7,388.5 607.7,357.6 639.4,353.5 				"/>
				<path class="st39" d="M609.5,391.3l-4.6-35.9l36.7-4.7l4.6,35.9L609.5,391.3z M610.6,359.8l3.4,25.9l26.7-3.4l-3.4-25.9
					L610.6,359.8z"/>
			</g>
			<g>
				<path id="plastic_4_" class="st39" d="M638.4,364.9l-26.8,3.4c-3.7,0.5-7.1-2.1-7.5-5.8l-6.7-51.5c-0.5-3.7,2.1-7,5.8-7.5
					l26.8-3.4c3.7-0.5,7.1,2.1,7.5,5.8l6.7,51.5C644.7,361,642.1,364.4,638.4,364.9z"/>
				<path class="st38" d="M610.7,370.9c-2,0-4-0.7-5.6-1.9c-2-1.5-3.2-3.7-3.5-6.1l-6.6-51.5c-0.3-2.4,0.3-4.8,1.9-6.8
					c1.5-1.9,3.7-3.2,6.1-3.5l26.8-3.4c2.5-0.3,4.9,0.3,6.8,1.9c2,1.5,3.2,3.7,3.5,6.1l6.6,51.5c0.3,2.4-0.3,4.8-1.9,6.8
					c-1.5,1.9-3.7,3.2-6.1,3.5l-26.8,3.4C611.5,370.8,611.1,370.9,610.7,370.9z M630.9,302.6c-0.2,0-0.4,0-0.5,0l-26.8,3.4
					c-1.1,0.1-2.1,0.7-2.8,1.6s-1,2-0.8,3.1l6.6,51.5c0.1,1.1,0.7,2.1,1.6,2.8c0.9,0.7,2,1,3.1,0.8l26.8-3.4
					c1.1-0.1,2.1-0.7,2.8-1.6s1-2,0.8-3.1l-6.6-51.5c-0.1-1.1-0.7-2.1-1.6-2.8C632.7,302.9,631.8,302.6,630.9,302.6z"/>
			</g>
		</g>
	</g>
	<g id="mouse_1_">
		<path id="color_15_" class="st8" d="M361.7,632.4c56.7,6.9,98.3,43.8,92.9,82.4c-5.5,38.6-55.9,64.3-112.6,57.4
			c-56.7-6.9-98.3-43.8-92.9-82.4C254.5,651.2,304.9,625.5,361.7,632.4z"/>
		<g id="shadow_1_">
			<g>
				<g>
					<defs>
						<path id="SVGID_5_" d="M361.7,632.4c56.7,6.9,98.3,43.8,92.9,82.4c-5.5,38.6-55.9,64.3-112.6,57.4
							c-56.7-6.9-98.3-43.8-92.9-82.4C254.5,651.2,304.9,625.5,361.7,632.4z"/>
					</defs>
					<clipPath id="SVGID_6_">
						<use xlink:href="#SVGID_5_"  style="overflow:visible;"/>
					</clipPath>
					<path id="color_14_" class="st40" d="M273.9,744.5c-0.9-0.7-15.6-11.9-14.1-30.3c1.3-16,13.6-24.6,15.2-25.7
						c6.5,4.8,32.2,22.6,68.8,20c38.6-2.8,62.1-26.5,67.4-32.1c0.9,2.9,5.2,14.7,17.8,22c11.3,6.5,22.3,5.3,25.6,4.8
						c8.8,1.5,17.7,3,26.5,4.5l-36.8-138.9l-226.1,25.4L215,729.6L273.9,744.5z"/>
				</g>
			</g>
			<g>
				<g>
					<defs>
						<path id="SVGID_7_" d="M361.7,632.4c56.7,6.9,98.3,43.8,92.9,82.4c-5.5,38.6-55.9,64.3-112.6,57.4
							c-56.7-6.9-98.3-43.8-92.9-82.4C254.5,651.2,304.9,625.5,361.7,632.4z"/>
					</defs>
					<clipPath id="SVGID_8_">
						<use xlink:href="#SVGID_7_"  style="overflow:visible;"/>
					</clipPath>
					<path class="st41" d="M263.3,730.1c-4.7-6.4-12.3-19.5-11.1-36.2c1.1-15.1,8.9-25.3,11.8-29.2c25.8-33.7,88.5-36.9,131.8-20.5
						c14.8,5.6,45.6,17.3,54,45.8c2.7,9.2,2.7,19.2,0.1,29.6l-4.9-1.2c2.4-9.5,2.4-18.6-0.1-27c-7.7-26.1-36.9-37.2-50.9-42.5
						c-41.8-15.9-102.4-12.1-126,18.8c-2.7,3.5-9.8,12.9-10.8,26.5c-1.1,15.1,5.9,27,10.2,32.8L263.3,730.1z"/>
				</g>
			</g>
		</g>
		<g id="lines_1_">
			<path class="st5" d="M362.3,703.1l-5-0.2c0.5-11.2,4.5-27.6,20.9-42.3c7.7-6.9,17.2-12.6,28.2-17l1.9,4.7
				c-10.5,4.1-19.5,9.5-26.7,16C366.4,677.9,362.8,692.9,362.3,703.1z"/>
			<polygon class="st5" points="454.1,717.9 359.5,705.5 360.1,700.6 454.8,712.9 			"/>
			<path class="st5" d="M387.3,772c-9.4-7-16.9-14.9-22.2-23.5c-11.5-18.4-10.5-35.2-7.7-46l4.9,1.2c-2.6,9.9-3.4,25.3,7.1,42.2
				c5,8.1,12.1,15.5,21,22.2L387.3,772z"/>
		</g>
		<g>
			<path id="roller_2_" class="st39" d="M390.4,707.3L390.4,707.3c-0.8,5.3-6,9.1-11.6,8.4l-29.7-3.8c-5.6-0.7-9.5-5.7-8.7-11l0,0
				c0.8-5.3,6-9.1,11.6-8.4l29.7,3.8C387.3,697,391.2,702,390.4,707.3z"/>
			<path class="st5" d="M380.2,718.3c-0.6,0-1.1,0-1.7-0.1l-29.7-3.8c-3.4-0.4-6.4-2.2-8.5-4.9c-2-2.6-2.8-5.8-2.3-9
				c1-6.7,7.5-11.4,14.4-10.5l29.7,3.8c3.4,0.4,6.4,2.2,8.5,4.9c2,2.6,2.8,5.8,2.3,9l0,0C392,713.8,386.5,718.3,380.2,718.3z
				 M350.7,694.9c-3.8,0-7.2,2.7-7.7,6.4c-0.3,1.9,0.2,3.7,1.4,5.2c1.2,1.6,3.1,2.7,5.1,2.9l29.7,3.8c4.2,0.6,8.1-2.3,8.7-6.3l0,0
				c0.3-1.9-0.2-3.7-1.4-5.2c-1.2-1.6-3.1-2.7-5.1-2.9l-29.7-3.8C351.4,694.9,351.1,694.9,350.7,694.9z"/>
		</g>
		<path class="st5" d="M360.1,775.9c-6.1,0-12.3-0.4-18.5-1.1c-34.6-4.2-65.3-19.8-82.2-41.7c-10.5-13.6-15-28.7-12.9-43.6
			c5.6-39.9,57.4-66.6,115.4-59.6l0,0c34.6,4.2,65.3,19.8,82.2,41.7c10.5,13.6,15,28.7,12.9,43.6C452,750.8,410.3,775.9,360.1,775.9
			z M343.3,633.8c-47.6,0-87.1,23.3-91.8,56.4c-1.9,13.5,2.2,27.3,11.9,39.8c16.1,20.9,45.6,35.7,78.8,39.8
			c55.3,6.7,104.6-18.1,109.8-55.3c1.9-13.5-2.2-27.3-11.9-39.8c-16.1-20.9-45.5-35.8-78.7-39.8
			C355.3,634.2,349.2,633.8,343.3,633.8z"/>
	</g>
	<g id="fox_1_">
		<g id="ears-inside_1_">
			<g>
				<path id="right_17_" class="st8" d="M345.1,374.3h184.4c10.6-12.9,37.8-49.6,37.1-100.4c-0.9-62.7-44.1-121.4-109.8-149.4
					c-0.4,22.4-3.1,48.4-10.1,76.6C425.2,287.3,375.1,345,345.1,374.3z"/>
				<path class="st20" d="M530.7,376.8H338.9l4.4-4.3c50.2-48.9,85.1-108.4,100.9-172c6.1-24.7,9.5-50.3,10-76l0.1-3.7l3.4,1.5
					c66.7,28.4,110.4,87.9,111.3,151.6c0.7,48.1-23.3,84.6-37.6,102L530.7,376.8z M351.2,371.8h177.1c14-17.3,36.4-52.2,35.8-97.9
					c-0.9-60.6-41.9-117.4-104.8-145.6c-0.8,24.8-4.1,49.5-10.1,73.4C433.5,264.4,399.7,323.1,351.2,371.8z"/>
			</g>
			<g>
				<path id="left_17_" class="st8" d="M345.1,374.3H160.7c-10.6-12.9-37.8-49.6-37.1-100.4c0.9-62.7,44.1-121.4,109.8-149.4
					c0.4,22.4,3.1,48.4,10.1,76.6C264.9,287.3,315,345,345.1,374.3z"/>
				<path class="st20" d="M351.3,376.8H159.5l-0.8-0.9c-14.4-17.5-38.3-53.9-37.6-102c0.9-63.7,44.6-123.2,111.3-151.6l3.4-1.5
					l0.1,3.7c0.5,25.7,3.9,51.3,10,76c15.8,63.7,50.7,123.1,100.9,172L351.3,376.8z M161.9,371.8H339
					c-48.5-48.7-82.3-107.4-97.9-170.1c-5.9-23.9-9.3-48.5-10.1-73.4c-63,28.2-104,85-104.9,145.6
					C125.5,319.6,147.9,354.5,161.9,371.8z"/>
			</g>
		</g>
		<g id="teeth_1_">
			<g>
				<ellipse id="right_14_" class="st18" cx="376.9" cy="669" rx="12.1" ry="29.1"/>
				<path class="st24" d="M376.9,700.6c-8.3,0-14.6-13.6-14.6-31.6s6.3-31.6,14.6-31.6s14.6,13.6,14.6,31.6
					C391.6,687.1,385.3,700.6,376.9,700.6z M376.9,642.4c-4,0-9.6,10.1-9.6,26.6s5.6,26.6,9.6,26.6s9.6-10.1,9.6-26.6
					C386.5,652.6,380.9,642.4,376.9,642.4z"/>
			</g>
			<g>
				<ellipse id="left_14_" class="st18" cx="313.2" cy="669" rx="12.1" ry="29.1"/>
				<path class="st24" d="M313.2,700.6c-8.3,0-14.6-13.6-14.6-31.6s6.3-31.6,14.6-31.6c8.3,0,14.6,13.6,14.6,31.6
					C327.9,687.1,321.6,700.6,313.2,700.6z M313.2,642.4c-4,0-9.6,10.1-9.6,26.6s5.6,26.6,9.6,26.6s9.6-10.1,9.6-26.6
					C322.8,652.6,317.2,642.4,313.2,642.4z"/>
			</g>
		</g>
		<g id="head_1_">
			<path id="color_12_" class="st14" d="M552.7,395.6c-24.5-19.6-40.5-40.7-50.5-56.5c-12.6-9.4-30-24.8-45.4-47.7
				c-12.4-18.3-19.6-35.7-24-49c-8.6-6.5-22.6-15.4-41.6-21.3c-18.9-5.9-35.3-6.6-46.1-6.3c-10.8-0.4-27.2,0.4-46.1,6.3
				c-19,6-33,14.9-41.6,21.3c-4.3,13.2-11.6,30.6-24,49c-15.5,22.9-32.8,38.2-45.4,47.7c-9.9,15.7-25.9,36.9-50.5,56.5
				c-14.9,11.9-29.4,20.3-41.6,26.4c9,20.4,26.3,52.4,58,82.8c38.1,36.5,78.4,52.9,101,60.3c7.6,4.6,15.1,9.2,22.7,13.8
				c2.5,36.9,10.5,63.3,16.4,79.1c4.3,11.4,9,21.1,18.9,28.9c11.8,9.2,25.1,10.9,32.2,11.3c7.1-0.4,20.4-2.1,32.2-11.3
				c10-7.8,14.7-17.5,18.9-28.9c5.9-15.8,13.9-42.2,16.4-79.1c7.6-4.6,15.1-9.2,22.7-13.8c22.5-7.3,62.8-23.7,101-60.3
				c31.8-30.4,49-62.4,58-82.8C582,416,567.5,407.5,552.7,395.6z"/>
			<g id="muzzle_1_">
				<path id="color_11_" class="st15" d="M344.5,528.5c-27.8,0-52.7,19.1-69.1,49.1c0.7,0.4,1.4,0.9,2.1,1.3
					c2.5,36.9,10.5,63.3,16.4,79.1c4.3,11.4,9,21.1,18.9,28.9c11.8,9.2,25.1,10.9,32.2,11.3c7.1-0.4,20.4-2.1,32.2-11.3
					c10-7.8,14.7-17.5,18.9-28.9c5.9-15.8,13.9-42.2,16.4-79.1c0.4-0.3,0.9-0.5,1.3-0.8C397.5,547.8,372.5,528.5,344.5,528.5z"/>
				<g id="stripes_1_">
					<path id="right_16_" class="st16" d="M345.1,529.1c-15.8,3.1-31.5,6.1-47.3,9.2c-3.4-2-5.9-2.1-7.6-1.7
						c-8.4,1.9-13.4,18.8-12.6,42.3c-0.3,11.4,0.4,26.3,4.2,43.1c3.2,14.5,7.8,26.6,12.2,36c-2.2-12-7.6-49.8,13.9-87.9
						C319.6,549.2,335,536.2,345.1,529.1z"/>
					<path id="left_16_" class="st16" d="M345.1,529.1c15.8,3.1,31.5,6.1,47.3,9.2c3.4-2,5.9-2.1,7.6-1.7
						c8.4,1.9,13.4,18.8,12.6,42.3c0.3,11.4-0.4,26.3-4.2,43.1c-3.2,14.5-7.8,26.6-12.2,36c2.2-12,7.6-49.8-13.9-87.9
						C370.5,549.2,355.1,536.2,345.1,529.1z"/>
				</g>
			</g>
			<path class="st26" d="M345.2,700.6c-13.1-0.6-24.7-4.7-33.9-11.8c-10-7.8-14.9-17.2-19.7-30c-8.9-23.5-14.4-50-16.5-78.5
				l-21.4-13c-38-12.4-73.1-33.4-101.6-60.7c-24.9-23.9-44.6-52-58.6-83.6l-1-2.2l2.2-1.1c14.7-7.2,28.5-16,41.2-26.1
				c19.6-15.6,36.4-34.4,49.9-55.9l0.6-0.7c17.6-13.2,32.6-29,44.9-47.1c10.1-14.9,18-31.2,23.7-48.3l0.2-0.8l0.6-0.5
				c12.8-9.6,27.1-16.9,42.4-21.7c15.2-4.8,30.9-6.9,46.9-6.4c15.8-0.5,31.5,1.6,46.7,6.4c15.3,4.8,29.6,12.1,42.4,21.7l0.6,0.5
				l0.2,0.8c5.6,17.2,13.6,33.4,23.7,48.3c12.2,18.1,27.3,33.9,44.9,47.1l0.6,0.7c13.5,21.4,30.3,40.2,49.9,55.9l0,0
				c12.7,10.1,26.5,18.9,41.2,26.1l2.2,1.1l-1,2.2c-14,31.6-33.7,59.8-58.6,83.6c-28.6,27.4-63.7,48.4-101.6,60.7l-21.4,13
				c-2.1,28.5-7.6,54.9-16.5,78.5c-4.8,12.7-9.8,22.2-19.7,30C369.7,695.9,358.1,700,345.2,700.6z M99.1,423.2
				c13.7,30.2,32.7,57,56.5,79.9c28.1,26.9,62.6,47.5,100,59.7l0.5,0.2l23.8,14.5l0.1,1.3c2,28.6,7.4,54.9,16.3,78.4
				c4.5,11.9,9.1,20.7,18.1,27.8c8.3,6.5,18.9,10.2,30.8,10.8c11.6-0.6,22.2-4.3,30.5-10.8c9-7,13.6-15.8,18.1-27.8
				c8.8-23.4,14.3-49.8,16.3-78.4l0.1-1.3l24.4-14.7c37.3-12.1,71.9-32.8,100-59.7c23.8-22.9,42.8-49.7,56.5-79.9
				c-14.2-7.1-27.6-15.7-39.9-25.6l0,0c-19.9-15.9-37-35-50.8-56.7c-17.8-13.5-33.2-29.6-45.6-48c-10.2-15.1-18.3-31.5-24-48.8
				c-12.2-9-25.7-15.9-40.3-20.5c-14.6-4.6-29.8-6.7-45.2-6.2c-15.6-0.5-30.7,1.6-45.4,6.2c-14.5,4.5-28.1,11.4-40.3,20.5
				c-5.8,17.3-13.8,33.7-24,48.8c-12.4,18.4-27.8,34.6-45.6,48c-13.8,21.7-30.9,40.8-50.8,56.7C126.7,407.4,113.3,416,99.1,423.2z"
				/>
		</g>
		<g id="ears_1_">
			<g id="eras-fur_1_">
				<path id="right_15_" class="st18" d="M469.8,305.7l34.8-70.1c2.5,5.9,5.7,16.1,4.9,28.8c-0.6,8.6-2.8,15.7-4.9,20.7
					c2.6-2,5.4-4.5,8.1-7.4c6.1-6.5,9.8-13,12.1-18.1c1.4,7.3,2.4,17.1,0.8,28.4c-0.7,5.2-1.9,9.9-3.2,14c4.3-2.5,8.6-4.9,12.9-7.4
					c0.9,4.5,3.4,19.5-5.7,35.4c-8,13.9-20.3,20.6-25.1,22.9c-2.7,0.1-16.8,0.6-27.5-8.9C466.5,334.7,463.5,319.4,469.8,305.7z"/>
				<path id="left_15_" class="st18" d="M220,305.7l-34.8-70.1c-2.5,5.9-5.7,16.1-4.9,28.8c0.6,8.6,2.8,15.7,4.9,20.7
					c-2.6-2-5.4-4.5-8.1-7.4c-6.1-6.5-9.8-13-12.1-18.1c-1.4,7.3-2.4,17.1-0.8,28.4c0.7,5.2,1.9,9.9,3.2,14
					c-4.3-2.5-8.6-4.9-12.9-7.4c-0.9,4.5-3.4,19.5,5.7,35.4c8,13.9,20.3,20.6,25.1,22.9c2.7,0.1,16.8,0.6,27.5-8.9
					C223.3,334.7,226.3,319.4,220,305.7z"/>
			</g>
			<g id="right_13_">
				<g>
					<path id="right_12_" class="st26" d="M456.8,124.5c8.6,3.2,63.6,24.9,84.6,83.3c18.6,51.7,3.1,111.6-39.5,152.3
						c0.6,1.4,4.7,11.2,15.1,14.2c5.5,1.6,10.2,0.6,12.6,0c9.8-11.4,40.8-50.7,38.8-105.4C565.9,206.8,522,149.8,456.8,124.5z"/>
					<path class="st20" d="M523.1,377.7c-2.1,0-4.5-0.3-6.9-1c-11-3.2-15.6-12.8-16.8-15.7c-0.4-1-0.2-2,0.6-2.8
						c42-40,57.2-98.8,38.9-149.6c-17.3-48.1-57.8-70.9-76.9-79.2c-2-0.9-4.1-1.7-6.2-2.5c-1.3-0.5-1.9-1.9-1.4-3.2
						c0.5-1.3,1.9-1.9,3.2-1.4c1.7,0.6,3.8,1.5,6.2,2.5c62.9,26.9,104.6,82.8,106.9,144.1c1.9,50.9-23.8,89-39.4,107.2
						c-0.3,0.4-0.8,0.7-1.2,0.8C528.3,377.2,525.9,377.7,523.1,377.7z M504.8,360.6c1.5,3,5.4,9.1,12.8,11.3
						c4.1,1.2,7.8,0.8,10.4,0.2c15.1-17.8,39.5-54.4,37.6-103.1c-1.2-33.1-14.4-64.6-36.4-90.5c5.6,8.4,10.5,17.8,14.4,28.5
						C562.5,259.1,547.2,319.3,504.8,360.6z"/>
				</g>
				<g>
					<path id="left_13_" class="st26" d="M456.8,124.5c10.1,15.4,34.7,57.1,32.2,114.2c-1.6,36.6-13.7,64.5-22.1,80.3
						c-6.3-5.1-15.4-13.8-22.7-27c-11.5-20.7-11.8-40.5-11.4-49.6c5.7-14.2,11.4-31,15.8-50.2C454.4,166.5,456.4,143.4,456.8,124.5z
						"/>
					<path class="st20" d="M466.9,321.6c-0.6,0-1.1-0.2-1.6-0.6c-9.6-7.8-17.4-17.1-23.3-27.7c-10.7-19.4-12.3-38.4-11.7-50.9
						c0-0.3,0.1-0.6,0.2-0.8c6.5-16.1,11.8-32.9,15.7-49.8c5-22,7.8-44.7,8.1-67.3c0-1.1,0.8-2.1,1.8-2.4c1.1-0.3,2.2,0.1,2.8,1
						c13.2,20,35,61.6,32.6,115.7c-1.2,28-9,56.2-22.4,81.4c-0.4,0.7-1,1.1-1.7,1.3C467.2,321.6,467,321.6,466.9,321.6z M435.3,243
						c-0.5,11.9,1,29.7,11.1,47.8c5.1,9.2,11.7,17.3,19.7,24.3c12.2-23.9,19.2-50.3,20.4-76.5c2.1-47-14.6-84.4-27.4-105.7
						c-0.8,20.2-3.5,40.3-8,60C447.1,209.9,441.8,226.8,435.3,243z"/>
				</g>
				<path id="dark-tip_3_" class="st20" d="M455.8,124.5c6.5,10.1,13.6,23.1,19.6,38.9c7.5,19.8,10.7,37.7,12.1,51.4
					c-1.1,0.9-10.6,8.2-22.9,5.1c-9.2-2.3-16.4-9.5-18.9-18.8c4-12.1,7.8-27.4,9.5-45.2C456.2,144.3,456.3,133.7,455.8,124.5z"/>
			</g>
			<g id="left_12_">
				<g>
					<path id="right_20_" class="st26" d="M233.4,124.5c-10.1,15.4-34.7,57.1-32.2,114.2c1.6,36.6,13.7,64.5,22.1,80.3
						c6.3-5.1,15.4-13.8,22.7-27c11.5-20.7,11.8-40.5,11.4-49.6c-5.7-14.2-11.4-31-15.8-50.2C235.7,166.5,233.7,143.4,233.4,124.5z"
						/>
					<path class="st20" d="M223.3,321.6c-0.2,0-0.3,0-0.5-0.1c-0.7-0.1-1.4-0.6-1.7-1.3c-13.4-25.2-21.1-53.4-22.4-81.4
						c-2.4-54.1,19.4-95.7,32.6-115.7c0.6-0.9,1.7-1.3,2.8-1s1.8,1.3,1.8,2.4c0.4,22.6,3.1,45.3,8.1,67.3
						c3.9,16.9,9.1,33.7,15.7,49.8c0.1,0.3,0.2,0.5,0.2,0.8c0.6,12.5-0.9,31.5-11.7,50.9c-5.9,10.6-13.7,20-23.3,27.7
						C224.4,321.4,223.9,321.6,223.3,321.6z M231.1,132.9c-12.8,21.3-29.5,58.7-27.4,105.7c1.2,26.3,8.2,52.6,20.4,76.5
						c8-6.9,14.6-15.1,19.7-24.3c10.1-18.2,11.6-36,11.1-47.8c-6.5-16.3-11.8-33.1-15.7-50.2C234.6,173.2,232,153.1,231.1,132.9z"/>
				</g>
				<g>
					<path id="left_20_" class="st26" d="M233.4,124.5c-8.6,3.2-63.6,24.9-84.6,83.3c-18.6,51.7-3.1,111.6,39.5,152.3
						c-0.6,1.4-4.7,11.2-15.1,14.2c-5.5,1.6-10.2,0.6-12.6,0c-9.8-11.4-40.8-50.7-38.8-105.4C124.2,206.8,168.1,149.8,233.4,124.5z"
						/>
					<path class="st20" d="M167.1,377.7c-2.8,0-5.2-0.5-7.1-1c-0.5-0.1-0.9-0.4-1.2-0.8c-15.5-18.2-41.3-56.2-39.4-107.2
						c2.3-61.3,44-117.2,106.9-144.1c2.5-1.1,4.6-1.9,6.2-2.5c1.3-0.5,2.8,0.2,3.2,1.4c0.5,1.3-0.1,2.7-1.4,3.2
						c-2.1,0.8-4.2,1.7-6.2,2.5c-19.1,8.4-59.6,31.2-76.9,79.2c-18.3,50.9-3,109.6,38.9,149.6c0.7,0.7,1,1.8,0.6,2.8
						c-1.2,2.9-5.8,12.5-16.8,15.7C171.5,377.4,169.2,377.7,167.1,377.7z M162.1,372.1c2.6,0.6,6.3,1,10.4-0.2
						c7.4-2.2,11.3-8.2,12.8-11.3c-42.4-41.4-57.7-101.5-38.9-153.7c3.8-10.7,8.8-20.1,14.4-28.5c-22,25.9-35.1,57.4-36.4,90.5
						C122.6,317.6,147,354.2,162.1,372.1z"/>
				</g>
				<path id="dark-tip_2_" class="st20" d="M233.4,124.5c-6.5,10.1-13.6,23.1-19.6,38.9c-7.5,19.8-10.7,37.7-12.1,51.4
					c1.1,0.9,10.6,8.2,22.9,5.1c9.2-2.3,16.4-9.5,18.9-18.8c-4-12.1-7.8-27.4-9.5-45.2C232.9,144.3,232.9,133.7,233.4,124.5z"/>
			</g>
		</g>
		<g>
			
				<linearGradient id="head-fur_4_" gradientUnits="userSpaceOnUse" x1="344.8163" y1="435.4078" x2="344.8163" y2="180.0078" gradientTransform="matrix(1 0 0 1 0 -0.22)">
				<stop  offset="0.2" style="stop-color:#FF7900"/>
				<stop  offset="1" style="stop-color:#B53E02"/>
			</linearGradient>
			<path id="head-fur_2_" class="st42" d="M452.7,296c-12.2,6.1-24.4,12.2-36.6,18.3c6-9.1,14.5-24.8,16.8-45.7
				c3.3-30.8-9.2-54.3-15.2-64c-7.6,13.1-15.2,26.1-22.8,39.2c-1.3-6.9-4-15.6-9.1-24.8c-11.9-21.1-30.3-33.1-40.6-38.7v-0.5
				c-0.1,0.1-0.3,0.2-0.4,0.2c-0.1-0.1-0.3-0.2-0.4-0.2v0.5c-10.3,5.6-28.7,17.6-40.6,38.7c-5.2,9.2-7.8,17.9-9.1,24.8
				c-7.6-13.1-15.2-26.1-22.8-39.2c-6,9.7-18.5,33.2-15.2,64c2.2,20.9,10.8,36.7,16.8,45.7c-12.2-6.1-24.4-12.2-36.6-18.3
				c-0.9,11.7-0.1,29,10.7,45.7c13.3,20.6,32.1,25.1,57.9,47c10.9,9.2,25.5,23.8,39.1,45.3v1.2c0.1-0.2,0.3-0.4,0.4-0.6
				c0.1,0.2,0.3,0.4,0.4,0.6V434c13.5-21.5,28.2-36.1,39.1-45.3c25.8-21.9,44.6-26.5,57.9-47C452.8,325.1,453.6,307.7,452.7,296z"/>
			
				<linearGradient id="SVGID_9_" gradientUnits="userSpaceOnUse" x1="344.7325" y1="438.0078" x2="344.7325" y2="177.5293" gradientTransform="matrix(1 0 0 1 0 -0.22)">
				<stop  offset="0.371" style="stop-color:#FF7900"/>
				<stop  offset="1" style="stop-color:#562A17"/>
			</linearGradient>
			<path class="st43" d="M345.1,437.8c-0.5,0-1-0.2-1.4-0.4c-1-0.3-1.9-1-1.9-2.1v-0.5c-10.6-16.8-23.5-31.6-38.2-44.1
				c-10.1-8.5-19.1-14.5-27.1-19.7c-12.3-8-22.9-15-31.3-27.9c-8.7-13.5-12.4-29.4-11.1-47.3c0.1-0.8,0.5-1.6,1.3-2
				c0.7-0.4,1.6-0.4,2.4-0.1l28.7,14.4c-6.9-12.4-11.1-25.6-12.6-39.3c-3-28.4,6.8-51.4,15.6-65.6c0.5-0.8,1.1-1.1,2.2-1.2
				c0.9,0,1.7,0.5,2.2,1.3l19.7,33.7c1.8-6.7,4.5-13.2,7.9-19.3c11.1-19.8,28.2-32.3,40.9-39.3c0.2-0.2,0.4-0.4,0.6-0.6
				c0.7-0.4,1.5-0.6,2.2-0.4c0.4,0,0.7,0.1,1,0.3s0.6,0.4,0.9,0.7c12.6,7,29.7,19.5,40.8,39.3c3.4,6.1,6.1,12.6,7.9,19.3l19.7-33.7
				c0.4-0.8,1.3-1.2,2.2-1.3l0,0c0.9,0,1.7,0.5,2.2,1.2c8.8,14.2,18.6,37.2,15.6,65.6c-1.4,13.7-5.7,26.9-12.6,39.3l28.7-14.4
				c0.8-0.4,1.6-0.4,2.4,0.1c0.7,0.4,1.2,1.2,1.3,2c1.4,17.9-2.3,33.8-11.1,47.3c-8.3,12.9-19,19.9-31.3,27.9
				c-8,5.2-17,11.1-27.1,19.7c-14.7,12.5-27.6,27.3-38.2,44.1v0.5c0,1.1-0.8,2.1-1.8,2.4C345.5,437.8,345.3,437.8,345.1,437.8z
				 M239,300c-0.5,15.2,3,28.8,10.5,40.4c7.8,12,17.5,18.4,29.8,26.4c8.1,5.3,17.3,11.3,27.6,20.1c14.5,12.3,27.2,26.8,37.8,43.2
				c10.6-16.4,23.4-30.9,37.8-43.2c10.3-8.7,19.5-14.8,27.6-20.1c12.3-8,22-14.4,29.8-26.4c7.5-11.6,11-25.2,10.5-40.4l-33.1,16.6
				c-1,0.5-2.3,0.3-3-0.6c-0.8-0.8-0.9-2.1-0.2-3c9.2-13.9,14.7-28.9,16.4-44.6c2.6-24.7-5-45.1-12.7-58.8L397,245
				c-0.5,0.9-1.5,1.4-2.6,1.2c-1-0.2-1.9-1-2.1-2c-1.6-8.4-4.6-16.5-8.9-24.1c-10.5-18.7-26.7-30.6-38.8-37.3
				c-12.1,6.7-28.3,18.6-38.8,37.3c-4.3,7.6-7.2,15.7-8.9,24.1c-0.2,1-1,1.8-2.1,2c-1.1,0.1-2.1-0.3-2.6-1.2l-20.7-35.5
				c-7.7,13.7-15.3,34.1-12.7,58.8c1.7,15.7,7.2,30.7,16.4,44.6c0.6,0.9,0.5,2.2-0.2,3c-0.8,0.9-2,1.1-3,0.6L239,300z"/>
		</g>
		<g id="nose-bridge_2_">
			
				<linearGradient id="bridge_3_" gradientUnits="userSpaceOnUse" x1="345.115" y1="680.8078" x2="345.115" y2="485.9078" gradientTransform="matrix(1 0 0 1 0 -0.22)">
				<stop  offset="0.2419" style="stop-color:#B53E02"/>
				<stop  offset="1" style="stop-color:#FF7900"/>
			</linearGradient>
			<path id="bridge_1_" class="st44" d="M377.3,591.9c2.8-8.7,5.4-19.4,6.7-31.8c0.8-7.6,1-14.6,0.8-20.9
				c1.4-16.2,2.8-32.4,4.2-48.5c-1.9,1.6-4.2,3.3-6.7,5c-3.9,2.6-7.7,4.5-10.9,5.9c-0.6-5.3-1.1-10.6-1.7-15.9
				c-0.3,1.7-1.7,8.9-8.4,14.2c-6.9,5.5-14.5,5.1-16.2,5c-1.7,0.1-9.3,0.5-16.2-5c-6.7-5.3-8.1-12.5-8.4-14.2
				c-0.6,5.3-1.1,10.6-1.7,15.9c-3.3-1.4-7-3.3-10.9-5.9c-2.6-1.7-4.8-3.4-6.7-5c1.4,16.2,2.8,32.4,4.2,48.5
				c-0.2,6.3,0,13.3,0.8,20.9c1.3,12.4,3.9,23.1,6.7,31.8c-2.5-2-5-3.9-7.6-5.9c-1.3,15.8-1.1,42.5,12.6,70.3
				c3.8,7.7,8,14.3,12.2,19.9l14.9,4.4l14.9-4.4c4.2-5.6,8.4-12.2,12.2-19.9c13.7-27.8,13.9-54.5,12.6-70.3
				C382.3,588,379.8,589.9,377.3,591.9z"/>
			<g>
				<path id="nose_2_" class="st26" d="M374.6,654.2c-3.2,0-6.5,0-9.7,0c-1.5,2.6-4.3,6.7-8.7,10h-22.3c-4.4-3.4-7.2-7.4-8.7-10
					c-3.2,0-6.5,0-9.7,0c-1,10.9,1.2,17,2.9,20.1c2.2,4.1,3.2,2.7,11.6,12.6c2.9,3.4,4.8,5.9,8.2,8.2c2.7,1.8,5.1,2.7,6.8,3.1
					c1.7-0.5,4.1-1.3,6.8-3.1c3.5-2.3,5.3-4.8,8.2-8.2c8.5-9.9,9.4-8.4,11.6-12.6C373.4,671.2,375.7,665.1,374.6,654.2z"/>
				<path class="st20" d="M345.1,700.7l-0.7-0.2c-2.6-0.7-5.2-1.9-7.5-3.5c-3.3-2.2-5.2-4.4-7.6-7.3l-1.1-1.3
					c-4.2-4.9-6.5-6.9-8-8.3c-1.6-1.4-2.6-2.3-3.9-4.7c-3-5.5-4-12.7-3.2-21.5l0.2-2.3h13.4l0.7,1.2c2,3.5,4.6,6.5,7.4,8.8h20.5
					c2.9-2.3,5.4-5.3,7.4-8.8l0.7-1.2h13.4l0.2,2.3c0.8,8.8-0.2,16-3.2,21.5c-1.3,2.4-2.3,3.3-3.9,4.7c-1.5,1.3-3.8,3.4-8,8.3
					l-1.1,1.3c-2.4,2.9-4.3,5.1-7.6,7.3c-2.3,1.6-4.9,2.7-7.5,3.5L345.1,700.7z M317.9,656.7c-0.4,6.7,0.6,12.2,2.8,16.4
					c0.9,1.6,1.4,2.1,2.8,3.3c1.6,1.4,4.1,3.6,8.5,8.8l1.1,1.3c2.2,2.7,3.9,4.6,6.6,6.4c1.7,1.1,3.5,2,5.4,2.6
					c1.9-0.6,3.7-1.5,5.4-2.6c2.7-1.8,4.3-3.7,6.6-6.4l1.1-1.3c4.5-5.2,6.9-7.3,8.5-8.8c1.4-1.2,1.9-1.7,2.8-3.3
					c2.2-4.2,3.2-9.7,2.8-16.4h-5.9c-2.4,3.8-5.3,7-8.6,9.5l-0.7,0.5h-24l-0.7-0.5c-3.3-2.5-6.2-5.7-8.6-9.5H317.9z"/>
			</g>
			<path id="nose-light_1_" class="st24" d="M345.1,669.3c-6.6,0-13.2,0-19.7,0c0.5,1.6,1.7,5.1,4.9,7.8c6,5.2,13.9,3.7,14.8,3.5
				c1,0.2,8.8,1.8,14.8-3.5c3.2-2.8,4.4-6.2,4.9-7.8C358.2,669.3,351.6,669.3,345.1,669.3z"/>
		</g>
		<g id="eyes_1_">
			<g id="right_11_">
				<path id="fur-under-eye_3_" class="st15" d="M389.5,536.6c4-16,15.8-52.9,50.5-79.5c10.7-8.2,21.4-13.8,30.7-17.6
					c13.8-5.9,18.7-4.5,20.6-2.5c10.5,10.9-24.7,80.3-81.6,96.2C400.8,535.8,393.4,536.4,389.5,536.6z"/>
				<g>
					<path id="eye_2_" class="st18" d="M389.5,536.6c2.4-8.2,4.4-15.1,5.9-20.2c13.4-45.4,16.9-55.1,31.6-63.6
						c7.1-4.1,20.1-9.9,43.6-13.2c-9.6,6.2-22.4,15.9-32,29c-8.9,12.2-8.9,18.9-16.2,31.6C417.1,509.3,407.6,522.1,389.5,536.6z"/>
					<path class="st20" d="M384.8,543.6l2.2-7.6c2.4-8.2,4.4-15.1,5.9-20.3c13.2-44.9,17-55.9,32.8-65.1
						c10.9-6.4,25.9-10.9,44.5-13.5l11.2-1.6l-9.5,6.1c-13.4,8.7-24,18.2-31.4,28.4c-5,6.8-7.1,11.9-9.4,17.4
						c-1.7,4.2-3.5,8.5-6.7,14c-7.4,12.8-18.7,25.3-33.5,37.2L384.8,543.6z M460.1,443.9c-12.9,2.6-23.6,6.3-31.8,11
						c-13.7,8-16.9,16-30.5,62.2c-1,3.4-2.2,7.5-3.6,12.3c11.3-9.9,20-20.1,26-30.5c3-5.2,4.7-9.4,6.4-13.4
						c2.4-5.7,4.6-11.1,10-18.4C442.5,458.9,450.4,451.1,460.1,443.9z"/>
				</g>
				<path id="fur-above-eye_3_" class="st16" d="M421,410.6c-2.1-1.5-9.9-6.7-21.9-7c-13.4-0.4-22.3,5.7-24.2,7
					c0,15.3,0,30.6,0,45.9c5.4-0.9,18.8-3.9,30.1-13.4C420.5,430.1,421,414.3,421,410.6z"/>
			</g>
			<g id="left_11_">
				<path id="fur-under-eye_2_" class="st15" d="M301.1,538.8c-4-16-15.8-52.9-50.5-79.5c-10.7-8.2-21.4-13.8-30.7-17.6
					c-13.8-5.9-18.7-4.5-20.6-2.5c-10.5,10.9,24.7,80.3,81.6,96.2C289.7,537.9,297.1,538.5,301.1,538.8z"/>
				<g>
					<path id="eye_4_" class="st18" d="M300.7,536.6c-2.4-8.2-4.4-15.1-5.9-20.2c-13.4-45.4-16.9-55.1-31.6-63.6
						c-7.1-4.1-20.1-9.9-43.6-13.2c9.6,6.2,22.4,15.9,32,29c8.9,12.2,8.9,18.9,16.2,31.6C273.1,509.3,282.5,522.1,300.7,536.6z"/>
					<path class="st20" d="M305.3,543.5l-6.2-5c-14.9-11.9-26.1-24.4-33.5-37.2c-3.2-5.5-5-9.8-6.7-14c-2.2-5.4-4.4-10.6-9.4-17.4
						c-7.4-10.1-18-19.7-31.4-28.4l-9.5-6.1l11.2,1.6c18.6,2.6,33.6,7.1,44.5,13.5c15.8,9.2,19.6,20.2,32.8,65.1
						c1.5,5.1,3.5,12.1,5.9,20.3L305.3,543.5z M230.1,443.9c9.6,7.3,17.5,15,23.5,23.2c5.3,7.3,7.6,12.7,10,18.4
						c1.7,4,3.4,8.2,6.4,13.4c6,10.4,14.7,20.6,26,30.5c-1.4-4.8-2.6-8.9-3.6-12.3c-13.7-46.2-16.8-54.2-30.5-62.2
						C253.7,450.2,243,446.5,230.1,443.9z"/>
				</g>
				<path id="fur-above-eye_2_" class="st16" d="M269.1,410.6c2.1-1.5,9.9-6.7,21.9-7c13.4-0.4,22.3,5.7,24.2,7
					c0,15.3,0,30.6,0,45.9c-5.4-0.9-18.8-3.9-30.1-13.4C269.6,430.1,269.1,414.3,269.1,410.6z"/>
			</g>
		</g>
		<g id="spotes_1_">
			<ellipse id="small_1_" class="st26" cx="475.1" cy="500.4" rx="4.4" ry="4.4"/>
			<ellipse id="middle_1_" class="st26" cx="500.3" cy="482.1" rx="6.2" ry="6.1"/>
			<ellipse id="large_1_" class="st26" cx="513.8" cy="458.7" rx="7.3" ry="7.3"/>
			<path id="bridge-spot_1_" class="st15" d="M374.7,488.2c-2.5,2.2-7.6,6-15.9,8.6c-5.3,1.7-10.2,2.2-13.7,2.5
				c-3.5-0.2-8.3-0.8-13.7-2.5c-8.3-2.6-13.4-6.4-15.9-8.6c1.1,8.1,4.3,20.5,14.7,33.5c4.7,5.9,9.9,10.7,14.7,14.6v0.3
				c0.1-0.1,0.1-0.1,0.2-0.2c0.1,0.1,0.1,0.1,0.2,0.2v-0.3c4.8-3.8,10-8.7,14.7-14.6C370.4,508.7,373.6,496.4,374.7,488.2z"/>
		</g>
		<g id="paws_1_">
			<g id="right_10_">
				<g>
					<path id="color_9_" class="st24" d="M551.9,516.2c25.3-8,53,19.5,54.9,21.3c33.7,34.2,20.3,88.8,15.1,109.8
						c-2.1,8.6-9.4,35.2-29.7,52.7c-9.5,8.3-17.8,11-24,11.9c-4.9,0.8-13.4,2.1-20.8-3.1c-6.1-4.3-8.2-10.5-8.8-12.6
						c-3.2,3.8-6.3,7.5-9.5,11.3c-2.4,0.9-17.3,6.1-32.8-1.9c-13.8-7.1-18.6-19.8-19.6-22.6c-6,2-12.2,2-17.9,0.3
						c-3.3-1-10.2-3-14.5-9.9c-4.5-7.3-2.8-15.1-2.4-16.8c16.1-11.6,40.2-31.5,61.2-62.1C529.8,556,528.3,523.6,551.9,516.2z"/>
					<path class="st26" d="M560.6,715.3c-4.5,0-9.8-0.9-14.6-4.3c-4.1-2.9-6.7-6.6-8.2-9.7l-6.7,8c-0.3,0.3-0.6,0.6-1.1,0.7
						c-4.2,1.6-19.2,6-34.9-2c-11.9-6.1-17.5-16.1-19.9-21.8c-5.6,1.4-11.5,1.3-17.1-0.3c-3.7-1.1-11.2-3.3-15.9-11
						c-4.7-7.6-3.4-15.6-2.7-18.7c0.1-0.6,0.5-1.1,1-1.4c24.1-17.3,44.5-38,60.6-61.5c11-16,17.2-31.2,22.3-43.5
						c7.2-17.5,12.8-31.3,27.7-36c27-8.5,56.2,20.7,57.5,22c34.7,35.2,21,91.1,15.8,112.2c-3.2,13.1-11.5,37.6-30.4,54
						c-8.1,7-16.4,11.1-25.2,12.5C566.6,714.8,563.8,715.3,560.6,715.3z M538.6,693.8c0.2,0,0.3,0,0.5,0.1c0.9,0.2,1.6,0.9,1.9,1.8
						c0.8,2.7,2.8,7.6,7.9,11.2c6.5,4.6,14.3,3.4,18.9,2.7c8-1.2,15.4-5,22.8-11.4c17.9-15.5,25.8-38.9,28.9-51.4
						c5-20.3,18.3-74.3-14.5-107.5c-1.1-1.2-28.3-28.3-52.3-20.7l0,0c-12.6,4-17.6,16.2-24.5,33.1c-5.1,12.5-11.5,28-22.8,44.4
						c-16.3,23.7-36.8,44.6-61,62.2c-0.6,2.9-1.1,8.6,2.3,14c3.7,6,9.8,7.8,13,8.8c5.4,1.6,11,1.5,16.4-0.3c1.3-0.4,2.7,0.3,3.2,1.6
						c1.5,4.3,6.3,15,18.3,21.2c13.1,6.8,25.7,3.5,30.2,2l9-10.8C537.2,694.1,537.9,693.8,538.6,693.8z"/>
				</g>
				<g id="bones_3_">
					<g>
						
							<linearGradient id="first_14_" gradientUnits="userSpaceOnUse" x1="162.0037" y1="690.8036" x2="162.0037" y2="601.3668" gradientTransform="matrix(-1 0 0 1 750.2794 -0.22)">
							<stop  offset="0" style="stop-color:#F9AB6B"/>
							<stop  offset="1" style="stop-color:#8E4C35"/>
						</linearGradient>
						<path id="first_7_" class="st45" d="M613.7,613.7c0-1.3,0-8.4-4.5-10.1c-3-1.1-7.1,0.5-9.7,4.1c-0.4-3.3-3.1-6.1-6.1-6.5
							c-3.4-0.4-6.4,2.2-7.4,4.8c-1.5,3.9,1.9,7.1,3.8,13.2c2.3,7.4,0.9,14,0,18c-2.3,10.4-10.1,24.2-20.4,29.2
							c-0.7,0.3-3.3,1.5-5,4.2c-0.4,0.7-2.4,3.7-1.2,6.8s4.7,4.2,5.9,4.6c3.9,1.2,5.1-0.6,8,0.4c4.4,1.6,3.6,6.6,7.6,7.9
							c3.6,1.2,8.7-1.4,10.8-5.1c0,0,2.2-3.9,0.8-8.9c-0.6-2-1-3.1-1.4-4c-2.1-6,6.6-14.4,9.6-18c4.8-5.6,9.3-15.4,7.6-33.9
							C612.8,619,613.7,616.6,613.7,613.7z"/>
						
							<linearGradient id="SVGID_10_" gradientUnits="userSpaceOnUse" x1="161.9663" y1="693.3077" x2="161.9663" y2="598.8431" gradientTransform="matrix(-1 0 0 1 750.2794 -0.22)">
							<stop  offset="0" style="stop-color:#FFFFFF"/>
							<stop  offset="1" style="stop-color:#8E4C35"/>
						</linearGradient>
						<path class="st46" d="M586.7,693.1c-1,0-1.9-0.1-2.8-0.5c-2.9-1-4-3.2-4.9-5c-0.8-1.6-1.4-2.5-2.7-3c-0.8-0.3-1.3-0.2-2.2-0.1
							c-1.3,0.2-3.1,0.5-5.7-0.3c-1.5-0.5-5.9-1.9-7.5-6.1c-1-2.8-0.5-6,1.4-9.1c1.3-2.1,3.3-3.8,5.9-5.1
							c9.5-4.6,16.9-17.6,19.1-27.5c0.9-4,2.2-10,0.1-16.7c-0.6-2-1.4-3.6-2.2-5.2c-1.5-3.1-3-6.1-1.6-9.7c1.4-3.5,5.4-6.9,10.1-6.3
							c2.7,0.4,5.2,2.1,6.7,4.5c3-2.2,6.5-3,9.6-1.9c4,1.5,6.2,5.9,6.2,12.4l0,0c0,2.5-0.6,4.9-1.6,7.2c1.3,15.4-1.5,27.1-8.2,35
							c-0.4,0.5-0.9,1-1.5,1.7c-2.9,3.3-9,10-7.7,13.8l0.2,0.7c0.3,0.8,0.7,1.9,1.2,3.5c1.7,5.9-0.9,10.6-1,10.8
							C595.6,690,591.1,693.1,586.7,693.1z M575.2,679.5c0.8,0,1.7,0.1,2.7,0.5c3.2,1.2,4.5,3.6,5.4,5.4c0.8,1.4,1.2,2.2,2.1,2.5
							c2.3,0.8,6.2-1.2,7.7-4c0.1-0.1,1.7-3.1,0.6-7c-0.4-1.4-0.8-2.4-1-3.1l-0.3-0.8c-2.3-6.6,4.6-14.3,8.7-18.9
							c0.5-0.6,1-1.1,1.4-1.6c5.9-7,8.3-17.7,7-32c0-0.5,0-0.9,0.3-1.4c0.9-1.8,1.4-3.7,1.4-5.6c0-1.6-0.2-6.7-2.9-7.7
							c-1.7-0.6-4.7,0.3-6.8,3.2c-0.6,0.8-1.7,1.2-2.7,1c-1-0.3-1.8-1.1-1.9-2.1c-0.3-2.1-2-4.1-4-4.3c-2.1-0.2-4.1,1.7-4.7,3.2
							c-0.6,1.5,0,2.9,1.4,5.7c0.8,1.6,1.7,3.5,2.4,5.8c2.5,8,1,15.1,0.1,19.3c-2.5,11.4-10.8,25.6-21.7,30.9
							c-0.7,0.3-2.7,1.3-3.9,3.2c-1.1,1.7-1.4,3.4-1,4.6c0.7,2,3.3,2.8,4.3,3.1c1.5,0.5,2.3,0.3,3.4,0.2
							C573.8,679.6,574.5,679.5,575.2,679.5z"/>
					</g>
					<g>
						
							<linearGradient id="second_14_" gradientUnits="userSpaceOnUse" x1="208.2178" y1="683.9633" x2="208.2178" y2="596.2603" gradientTransform="matrix(-1 0 0 1 750.2794 -0.22)">
							<stop  offset="0" style="stop-color:#F9AB6B"/>
							<stop  offset="1" style="stop-color:#8E4C35"/>
						</linearGradient>
						<path id="second_7_" class="st47" d="M575.2,606.6c0.2-1.1,1.1-7.1-3.2-8.5c-2.8-0.9-7.1,0.4-10.2,3.4c0.1-2.7-2-5-5-5.4
							c-3.2-0.4-6.6,1.8-8,3.9c-2.2,3.3,0.5,5.9,1.4,11.1c1,6.5-1.7,12.5-3.4,16.2c-4.5,9.9-15.9,23.6-28.3,28.5
							c-0.8,0.3-3.9,1.5-6.5,4.3c-0.7,0.7-3.6,3.9-3.3,7.4c0.4,3.5,3.9,4.9,5.2,5.4c4,1.5,5.9-0.5,8.8,0.8c4.6,2,2.4,7.8,6.5,9.6
							c3.8,1.6,10.4-1.2,13.7-5.5c0,0,3.4-4.4,2.9-10.1c-0.2-2.3-0.5-3.5-0.7-4.5c-1.1-6.6,10.2-15.2,14.1-18.7
							c6.1-5.5,12.4-15,13.3-32C573.5,611.2,574.8,609.2,575.2,606.6z"/>
						
							<linearGradient id="SVGID_11_" gradientUnits="userSpaceOnUse" x1="208.2206" y1="686.4078" x2="208.2206" y2="593.7669" gradientTransform="matrix(-1 0 0 1 750.2794 -0.22)">
							<stop  offset="0" style="stop-color:#FFFFFF"/>
							<stop  offset="1" style="stop-color:#8E4C35"/>
						</linearGradient>
						<path class="st48" d="M531.8,686.2c-1.2,0-2.4-0.2-3.5-0.7c-3.1-1.3-3.9-4.1-4.5-6.2c-0.6-2.1-0.9-2.9-2.1-3.4
							c-0.8-0.3-1.3-0.3-2.5-0.1c-1.5,0.2-3.5,0.4-6.2-0.6c-4.2-1.6-6.4-4.1-6.8-7.5c-0.3-3,1.1-6.2,4-9.3s6.2-4.4,7.3-4.8
							c11.2-4.4,22.5-17.3,27-27.2c1.6-3.6,4.1-9,3.2-14.8c-0.3-1.6-0.7-3-1.2-4.3c-0.9-2.6-1.9-5.5,0.2-8.7c1.9-2.8,6.1-5.4,10.4-5
							c2.6,0.3,4.8,1.7,6.1,3.7c3.2-1.8,6.8-2.5,9.6-1.6c4,1.3,5.8,5.4,4.9,11.2l0,0c-0.3,2.2-1.2,4.3-2.6,6.3
							c-0.8,14.3-5.6,25.3-14.1,33c-0.5,0.5-1.2,1-1.9,1.6c-3.6,3.1-12.2,10.4-11.4,14.8l0.1,0.8c0.2,0.9,0.4,2.1,0.6,3.9
							c0.6,6.6-3.2,11.7-3.4,11.9C542,683.1,536.5,686.2,531.8,686.2z M520.5,670.7c1,0,2.1,0.1,3.3,0.7c3.4,1.5,4.3,4.5,4.9,6.6
							c0.5,1.8,0.8,2.6,1.6,2.9c2.4,1,7.8-1,10.7-4.7c0,0,2.8-3.8,2.4-8.4c-0.2-1.6-0.3-2.6-0.5-3.5l-0.2-0.9
							c-1.2-7.1,7.8-14.8,13.1-19.4c0.7-0.6,1.3-1.1,1.8-1.6c7.6-6.8,11.8-17,12.4-30.3c0-0.5,0.2-1,0.5-1.4
							c1.2-1.5,1.9-3.1,2.1-4.7l2.5,0.4l-2.5-0.4c0.2-1.5,0.5-5-1.5-5.7c-1.7-0.6-5.1,0.3-7.6,2.8c-0.7,0.7-1.8,0.9-2.8,0.5
							c-0.9-0.4-1.5-1.4-1.5-2.4c0.1-1.4-1.1-2.6-2.7-2.8c-2.3-0.2-4.7,1.5-5.6,2.8c-0.7,1-0.5,1.7,0.4,4.2c0.5,1.4,1.1,3.1,1.4,5.2
							c1.1,7.3-1.8,13.8-3.6,17.6c-4.8,10.7-16.9,24.8-29.7,29.8c-1,0.4-3.5,1.4-5.6,3.6c-1.8,2-2.8,4-2.6,5.4
							c0.2,1.7,2,2.7,3.6,3.3c1.5,0.6,2.5,0.5,3.8,0.3C519.2,670.8,519.8,670.7,520.5,670.7z"/>
					</g>
					<g>
						
							<linearGradient id="third_12_" gradientUnits="userSpaceOnUse" x1="247.4891" y1="662.4728" x2="247.4891" y2="586.9171" gradientTransform="matrix(-1 0 0 1 750.2794 -0.22)">
							<stop  offset="0" style="stop-color:#F9AB6B"/>
							<stop  offset="1" style="stop-color:#8E4C35"/>
						</linearGradient>
						<path id="third_6_" class="st49" d="M535.1,599.7c0.4-0.9,2.8-5.9,0.8-7.8c-1.3-1.3-4.3-1-7.1,1.2c0.9-2.5,0.3-5.1-1.5-6
							c-2-1.1-5,0.3-6.6,2c-2.6,2.7-1.5,5.8-2.5,10.9c-1.2,6.1-4.8,11.2-7.1,14.3c-6,8.4-18.4,20-30.2,24.4c-0.8,0.3-4,1.4-7.1,4
							c-0.8,0.7-4.5,3.8-4.9,6.9c-0.4,3.1,2.7,4,3.8,4.3c3.3,0.9,5.4-0.9,7.7-0.1c0.5,0.2,0.8,0.4,1.1,0.7c1.6,1.8,0.4,4,1.4,5.8
							c1.3,2.3,5.9,2.2,8.6,1.6c0.9-0.2,4.6-1.1,6.3-4.2c1.7-2.9,1.3-7.3,2-10.2c0-0.1,0.2-0.7,0.3-1.5c0.1-0.8,0.2-1.4,0.3-1.9
							c0.9-5.2,10.8-12,14.3-14.7c5.3-4.1,11.6-11.2,16.9-25C532.7,603.4,534.1,601.8,535.1,599.7z"/>
						
							<linearGradient id="SVGID_12_" gradientUnits="userSpaceOnUse" x1="247.4992" y1="664.9078" x2="247.4992" y2="584.3385" gradientTransform="matrix(-1 0 0 1 750.2794 -0.22)">
							<stop  offset="0" style="stop-color:#FFFFFF"/>
							<stop  offset="1" style="stop-color:#8E4C35"/>
						</linearGradient>
						<path class="st50" d="M488.3,664.7c-2.8,0-5.9-0.7-7.4-3.2c-0.8-1.4-0.8-2.8-0.8-3.8s0-1.3-0.3-1.6c-0.4-0.1-1,0-2,0.2
							c-1.4,0.3-3.3,0.7-5.6,0c-5.5-1.6-5.9-5.1-5.6-7c0.4-3.4,3.4-6.4,5.7-8.5c3.3-2.8,6.6-4,7.7-4.4c10.9-4.1,23.1-15.1,29.1-23.5
							c2.2-3.1,5.5-7.8,6.6-13.4c0.3-1.7,0.4-3.1,0.5-4.3c0.2-2.7,0.3-5.3,2.6-7.8c2.4-2.5,6.5-4.2,9.6-2.5c1.6,0.8,2.6,2.3,3,4.1
							c2.4-0.6,4.7-0.3,6.1,1.2c2.1,2.1,2,5.8-0.3,10.7c-0.8,1.7-1.9,3.4-3.3,4.8c-4.6,11.5-10.3,19.9-17.6,25.6l-1.7,1.3
							c-3.3,2.5-11.1,8.4-11.7,11.9l-0.3,1.9c-0.1,0.8-0.3,1.4-0.3,1.6c-0.2,1-0.3,2-0.4,3.2c-0.2,2.5-0.5,5.4-1.9,7.8
							c-1,1.8-3.3,4.2-7.9,5.4C491.3,664.5,489.8,664.7,488.3,664.7z M479.3,651c0.7,0,1.4,0.1,2.2,0.4c0.8,0.3,1.5,0.8,2.1,1.4
							c1.5,1.7,1.5,3.6,1.5,4.9c0,0.5,0,1.1,0.1,1.3c0.4,0.6,3.2,1,5.8,0.4c2.9-0.7,4.2-2,4.7-3c0.8-1.4,1-3.7,1.2-5.8
							c0.1-1.4,0.3-2.6,0.5-3.7c0.1-0.2,0.2-0.8,0.3-1.4l0.3-1.9c0.8-5.1,7.2-10.2,13.6-15.1l1.6-1.2c6.6-5.2,11.9-13,16.2-23.9
							c0.1-0.3,0.3-0.6,0.5-0.8c1.2-1.2,2.1-2.5,2.7-3.8l0,0c1.5-3.3,1.4-4.8,1.3-5c-0.3-0.1-1.8,0-3.7,1.4c-0.9,0.7-2.1,0.7-3,0
							s-1.3-1.8-0.9-2.9c0.5-1.4,0.2-2.7-0.3-2.9c-0.6-0.3-2.4,0.3-3.6,1.5c-1,1.1-1.1,2.2-1.3,4.6c-0.1,1.4-0.2,3.1-0.6,5
							c-1.3,6.7-5.2,12.1-7.5,15.3c-6.5,9.2-19.4,20.8-31.3,25.3c-1,0.4-3.7,1.4-6.3,3.6c-3.4,2.9-3.9,4.8-4,5.3
							c-0.1,0.4-0.1,1,2,1.5c1.2,0.3,2.1,0.1,3.3-0.1C477.6,651.2,478.4,651,479.3,651z"/>
					</g>
				</g>
				<g id="claws_3_">
					<g>
						<path id="first_6_" class="st15" d="M567,689.8c6,2.1,9.8,9.3,7.6,16.3c-1,2.3-3.9,8.4-10.7,12.6c-10,6-20.4,3-22.1,2.5
							c2.8-7.1,5.6-14.2,8.5-21.3C552,691.8,560.3,687.4,567,689.8z"/>
						<path class="st18" d="M550.2,724.9c-4.3,0-7.6-0.9-9.1-1.3c-0.7-0.2-1.2-0.7-1.5-1.3s-0.3-1.4-0.1-2l8.4-21.3
							c0.9-4.1,3.8-8,7.8-10.3c3.8-2.1,8.3-2.6,12.2-1.2l0,0c7.6,2.7,11.7,11.4,9.1,19.4c-1.5,3.5-4.8,9.7-11.8,13.9
							C559.9,724,554.6,724.9,550.2,724.9z M545.2,719.4c3.9,0.7,10.8,1.1,17.4-2.9c5.8-3.5,8.6-8.6,9.7-11.4
							c1.6-5.2-1.1-11.2-6.1-13l0,0c-2.5-0.9-5.4-0.6-8,0.9c-2.8,1.6-4.8,4.2-5.5,7.3L545.2,719.4z"/>
					</g>
					<g>
						<path id="second_6_" class="st15" d="M512.1,684.4c6,2.1,9.8,9.3,7.6,16.3c-1,2.3-3.9,8.4-10.7,12.6c-10,6-20.4,3-22.1,2.5
							c2.8-7.1,5.6-14.2,8.5-21.3C497,686.4,505.3,682,512.1,684.4z"/>
						<path class="st18" d="M495.2,719.5c-4.3,0-7.6-0.9-9.1-1.3c-0.7-0.2-1.2-0.7-1.5-1.3s-0.3-1.4-0.1-2l8.4-21.3
							c0.9-4.1,3.8-8,7.8-10.3c3.8-2.1,8.3-2.6,12.2-1.2l0,0c7.6,2.7,11.7,11.4,9.1,19.4c-1.5,3.5-4.8,9.7-11.8,13.9
							C505,718.6,499.6,719.5,495.2,719.5z M490.2,714c3.9,0.7,10.8,1.1,17.4-2.9c5.8-3.5,8.6-8.6,9.7-11.4c1.6-5.2-1.1-11.2-6.1-13
							l0,0c-2.5-0.9-5.4-0.6-8,0.9c-2.8,1.6-4.8,4.2-5.5,7.3L490.2,714z"/>
					</g>
					<g>
						<path id="third_5_" class="st15" d="M470.4,666.8c-2.5-5.9-10-9.1-16.9-6.5c-2.3,1.1-8.2,4.4-11.9,11.4
							c-5.4,10.3-1.8,20.4-1.1,22.1c7-3.2,13.9-6.5,20.9-9.7C469.4,681.9,473.2,673.3,470.4,666.8z"/>
						<path class="st18" d="M440.5,696.3c-0.3,0-0.6-0.1-0.9-0.2c-0.7-0.3-1.2-0.8-1.4-1.4c-1.1-3-4.4-13.5,1.2-24.1
							c3.8-7.2,9.8-10.9,13-12.5c8.1-3.1,17.1,0.4,20.3,7.8l0,0c1.6,3.8,1.5,8.2-0.4,12.1c-2,4.2-5.7,7.3-10.2,8.6l-20.5,9.6
							C441.3,696.3,440.9,696.3,440.5,696.3z M458.5,661.9c-1.3,0-2.7,0.2-4,0.7c-2.5,1.2-7.5,4.3-10.6,10.3
							c-3.6,6.8-2.8,13.6-1.8,17.4l18.3-8.5c3.5-1,6-3.2,7.4-6c1.3-2.6,1.4-5.6,0.4-8l0,0C466.6,664.1,462.6,661.9,458.5,661.9z"/>
					</g>
				</g>
			</g>
			<g id="left_10_">
				<g>
					<path id="color_18_" class="st24" d="M137.5,516.2c-25.3-8-53,19.5-54.9,21.3c-33.7,34.2-20.3,88.8-15.1,109.8
						c2.1,8.6,9.4,35.2,29.7,52.7c9.5,8.3,17.8,11,24,11.9c4.9,0.8,13.4,2.1,20.8-3.1c6.1-4.3,8.2-10.5,8.8-12.6
						c3.2,3.8,6.3,7.5,9.5,11.3c2.4,0.9,17.3,6.1,32.8-1.9c13.8-7.1,18.6-19.8,19.6-22.6c6,2,12.2,2,17.9,0.3c3.3-1,10.2-3,14.5-9.9
						c4.5-7.3,2.8-15.1,2.4-16.8c-16.1-11.6-40.2-31.5-61.2-62.1C159.5,556,161,523.6,137.5,516.2z"/>
					<path class="st26" d="M128.7,715.3c-3.1,0-5.9-0.4-8-0.8c-9-1.4-17.2-5.5-25.4-12.5c-19-16.5-27.2-40.9-30.4-54
						c-5.2-21.1-18.9-77,15.8-112.2c1.2-1.3,30.5-30.5,57.5-22l0,0c14.8,4.7,20.5,18.5,27.7,36c5,12.2,11.3,27.5,22.3,43.5
						c16.1,23.5,36.5,44.2,60.6,61.5c0.5,0.4,0.8,0.9,1,1.4c0.8,3.1,2,11.1-2.7,18.7c-4.7,7.7-12.2,9.9-15.9,11
						c-5.6,1.7-11.5,1.8-17.1,0.3c-2.4,5.7-8,15.6-19.9,21.8c-15.6,8.1-30.6,3.6-34.9,2c-0.4-0.2-0.8-0.4-1.1-0.7l-6.7-8
						c-1.5,3.1-4,6.8-8.2,9.7C138.5,714.4,133.3,715.3,128.7,715.3z M127.8,517.3c-21.4,0-42.4,21-43.4,22
						c-32.8,33.2-19.5,87.2-14.5,107.5c3.1,12.5,10.9,35.9,28.9,51.4c7.4,6.4,14.8,10.1,22.7,11.3c4.7,0.7,12.4,1.9,19-2.7
						c5.1-3.6,7.1-8.6,7.9-11.2c0.3-0.9,1-1.6,1.9-1.8s1.9,0.1,2.5,0.8l9,10.8c4.4,1.5,17.1,4.8,30.2-2c12-6.2,16.8-16.9,18.3-21.2
						c0.5-1.3,1.9-2,3.2-1.6c5.3,1.8,11,1.9,16.3,0.3c3.3-1,9.3-2.8,13-8.8c3.3-5.4,2.8-11.1,2.3-14c-24.2-17.6-44.7-38.5-61-62.2
						c-11.3-16.4-17.6-31.9-22.8-44.4c-6.9-16.9-11.9-29.1-24.5-33.1l0,0C133.8,517.7,130.8,517.3,127.8,517.3z"/>
				</g>
				<g id="bones_2_">
					<g>
						
							<linearGradient id="first_15_" gradientUnits="userSpaceOnUse" x1="101.0544" y1="690.8036" x2="101.0544" y2="601.3668" gradientTransform="matrix(1 0 0 1 0 -0.22)">
							<stop  offset="0" style="stop-color:#F9AB6B"/>
							<stop  offset="1" style="stop-color:#8E4C35"/>
						</linearGradient>
						<path id="first_5_" class="st51" d="M75.6,613.7c0-1.3,0-8.4,4.5-10.1c3-1.1,7.1,0.5,9.7,4.1c0.4-3.3,3.1-6.1,6.1-6.5
							c3.4-0.4,6.4,2.2,7.4,4.8c1.5,3.9-1.9,7.1-3.8,13.2c-2.3,7.4-0.9,14,0,18c2.3,10.4,10.1,24.2,20.4,29.2c0.7,0.3,3.3,1.5,5,4.2
							c0.4,0.7,2.4,3.7,1.2,6.8c-1.2,3.1-4.7,4.2-5.9,4.6c-3.9,1.2-5.1-0.6-8,0.4c-4.4,1.6-3.6,6.6-7.6,7.9
							c-3.6,1.2-8.7-1.4-10.8-5.1c0,0-2.2-3.9-0.8-8.9c0.6-2,1-3.1,1.4-4c2.1-6-6.6-14.4-9.6-18c-4.8-5.6-9.3-15.4-7.6-33.9
							C76.6,619,75.6,616.6,75.6,613.7z"/>
						
							<linearGradient id="SVGID_13_" gradientUnits="userSpaceOnUse" x1="101.1392" y1="693.3077" x2="101.1392" y2="598.8385" gradientTransform="matrix(1 0 0 1 0 -0.22)">
							<stop  offset="0" style="stop-color:#FFFFFF"/>
							<stop  offset="1" style="stop-color:#8E4C35"/>
						</linearGradient>
						<path class="st52" d="M102.7,693.1c-4.4,0-8.9-3.1-11-6.7c-0.1-0.2-2.7-4.9-1-10.8c0.5-1.6,0.9-2.7,1.2-3.5l0.3-0.7
							c1.4-3.8-4.7-10.6-7.7-13.8c-0.6-0.6-1.1-1.2-1.5-1.7c-6.7-7.9-9.5-19.7-8.2-35c-1.1-2.3-1.6-4.7-1.6-7.2l0,0
							c0-6.5,2.2-10.9,6.2-12.4c3.1-1.1,6.7-0.4,9.6,1.9c1.5-2.4,4-4.1,6.7-4.5c4.7-0.6,8.7,2.8,10.1,6.3c1.4,3.6,0,6.5-1.6,9.7
							c-0.8,1.6-1.5,3.2-2.2,5.2c-2.1,6.7-0.8,12.7,0.1,16.7c2.2,9.9,9.6,22.9,19,27.5c2.7,1.3,4.7,3,6,5.1c1.9,3.1,2.5,6.3,1.4,9.1
							c-1.6,4.3-6,5.7-7.5,6.1c-2.6,0.8-4.4,0.5-5.7,0.3c-1-0.1-1.4-0.2-2.2,0.1c-1.3,0.5-1.8,1.4-2.7,3c-0.9,1.8-2.1,4-4.9,5
							C104.6,692.9,103.6,693.1,102.7,693.1z M82.2,605.8c-0.4,0-0.8,0.1-1.2,0.2c-2.7,1-2.9,6.1-2.9,7.7l0,0c0,1.9,0.5,3.8,1.4,5.6
							c0.2,0.4,0.3,0.9,0.3,1.4c-1.3,14.3,1,25.1,7,32c0.4,0.4,0.9,1,1.4,1.6c4.1,4.6,11,12.2,8.7,18.9l-0.3,0.8
							c-0.3,0.7-0.6,1.7-1,3.1c-1.1,3.9,0.6,7,0.6,7c1.6,2.8,5.5,4.8,7.7,4c0.9-0.3,1.4-1.1,2.1-2.5c0.9-1.8,2.2-4.2,5.4-5.4
							c2-0.7,3.5-0.5,4.7-0.3c1.1,0.2,1.9,0.3,3.4-0.2c1-0.3,3.5-1.1,4.3-3.1c0.5-1.3,0.1-2.9-1-4.6c-1.2-2-3.2-2.9-3.8-3.2
							c-11.1-5.3-19.3-19.6-21.8-30.9c-0.9-4.2-2.5-11.3,0.1-19.3c0.7-2.3,1.6-4.2,2.4-5.8c1.4-2.8,2-4.2,1.4-5.7s-2.4-3.5-4.7-3.2
							c-1.9,0.3-3.7,2.2-4,4.3c-0.1,1-0.9,1.9-1.9,2.1c-1,0.3-2.1-0.1-2.7-1C86.1,606.8,83.9,605.8,82.2,605.8z"/>
					</g>
					<g>
						
							<linearGradient id="second_15_" gradientUnits="userSpaceOnUse" x1="147.3685" y1="683.9633" x2="147.3685" y2="596.2603" gradientTransform="matrix(1 0 0 1 0 -0.22)">
							<stop  offset="0" style="stop-color:#F9AB6B"/>
							<stop  offset="1" style="stop-color:#8E4C35"/>
						</linearGradient>
						<path id="second_5_" class="st53" d="M114.2,606.6c-0.2-1.1-1.1-7.1,3.2-8.5c2.8-0.9,7.1,0.4,10.2,3.4c-0.1-2.7,2-5,5-5.4
							c3.2-0.4,6.6,1.8,8,3.9c2.2,3.3-0.5,5.9-1.4,11.1c-1,6.5,1.7,12.5,3.4,16.2c4.5,9.9,15.9,23.6,28.3,28.5
							c0.8,0.3,3.9,1.5,6.5,4.3c0.7,0.7,3.6,3.9,3.3,7.4c-0.4,3.5-3.9,4.9-5.2,5.4c-4,1.5-5.9-0.5-8.8,0.8c-4.6,2-2.4,7.8-6.5,9.6
							c-3.8,1.6-10.4-1.2-13.7-5.5c0,0-3.4-4.4-2.9-10.1c0.2-2.3,0.5-3.5,0.7-4.5c1.1-6.6-10.2-15.2-14.1-18.7
							c-6.1-5.5-12.4-15-13.3-32C115.9,611.2,114.6,609.2,114.2,606.6z"/>
						
							<linearGradient id="SVGID_14_" gradientUnits="userSpaceOnUse" x1="147.3713" y1="686.4078" x2="147.3713" y2="593.7457" gradientTransform="matrix(1 0 0 1 0 -0.22)">
							<stop  offset="0" style="stop-color:#FFFFFF"/>
							<stop  offset="1" style="stop-color:#8E4C35"/>
						</linearGradient>
						<path class="st54" d="M157.6,686.2c-4.8,0-10.3-3.2-13.2-7c-0.2-0.2-4-5.3-3.4-11.9c0.2-1.8,0.4-3,0.6-3.9l0.1-0.8
							c0.7-4.3-7.8-11.6-11.4-14.8c-0.7-0.6-1.4-1.2-1.9-1.6c-8.5-7.6-13.2-18.7-14.1-33c-1.4-2-2.3-4.1-2.6-6.3l0,0
							c-0.9-5.8,0.9-9.9,4.9-11.2c2.8-0.9,6.4-0.3,9.6,1.6c1.3-2,3.4-3.4,6.1-3.7c4.3-0.5,8.4,2.1,10.4,5c2.1,3.1,1.1,6.1,0.2,8.7
							c-0.5,1.3-0.9,2.7-1.2,4.3c-0.9,5.8,1.6,11.2,3.2,14.8c4.5,9.9,15.8,22.8,26.9,27.2c1.2,0.5,4.6,1.8,7.4,4.9
							c2.9,3.1,4.3,6.4,4,9.3c-0.3,3.3-2.6,5.9-6.8,7.5c-2.7,1-4.7,0.8-6.2,0.6c-1.2-0.1-1.8-0.2-2.5,0.1c-1.1,0.5-1.5,1.3-2.1,3.4
							c-0.6,2-1.4,4.8-4.5,6.2C160,686,158.8,686.2,157.6,686.2z M116.7,606.2c0.2,1.6,1,3.2,2.1,4.7c0.3,0.4,0.5,0.9,0.5,1.4
							c0.7,13.2,4.8,23.4,12.4,30.3c0.5,0.4,1.1,1,1.8,1.6c5.3,4.6,14.3,12.3,13.1,19.4l-0.2,0.9c-0.2,0.8-0.3,1.9-0.5,3.4
							c-0.4,4.6,2.3,8.3,2.4,8.4c2.9,3.8,8.3,5.7,10.7,4.7c0.9-0.4,1.1-1.1,1.6-2.9c0.6-2.2,1.4-5.1,4.9-6.6
							c2.1-0.9,3.8-0.7,5.2-0.5c1.3,0.1,2.3,0.3,3.8-0.3c1.6-0.6,3.4-1.5,3.6-3.3c0.1-1.5-0.8-3.5-2.6-5.4c-2.1-2.3-4.6-3.2-5.5-3.6
							c-12.9-5.1-24.9-19.2-29.8-29.8c-1.8-3.9-4.7-10.4-3.6-17.6c0.3-2.1,0.9-3.8,1.4-5.2c0.9-2.5,1-3.2,0.4-4.2
							c-0.9-1.3-3.3-3-5.6-2.8c-1.6,0.2-2.8,1.4-2.7,2.8c0,1-0.6,2-1.5,2.4s-2,0.2-2.8-0.5c-2.6-2.5-5.9-3.3-7.6-2.8
							C116.1,601.2,116.4,604.7,116.7,606.2l-2.5,0.4L116.7,606.2z"/>
					</g>
					<g>
						
							<linearGradient id="third_13_" gradientUnits="userSpaceOnUse" x1="186.6397" y1="662.4728" x2="186.6397" y2="586.9171" gradientTransform="matrix(1 0 0 1 0 -0.22)">
							<stop  offset="0" style="stop-color:#F9AB6B"/>
							<stop  offset="1" style="stop-color:#8E4C35"/>
						</linearGradient>
						<path id="third_4_" class="st55" d="M154.3,599.7c-0.4-0.9-2.8-5.9-0.8-7.8c1.3-1.3,4.3-1,7.1,1.2c-0.9-2.5-0.3-5.1,1.5-6
							c2-1.1,5,0.3,6.6,2c2.6,2.7,1.5,5.8,2.5,10.9c1.2,6.1,4.8,11.2,7.1,14.3c6,8.4,18.4,20,30.2,24.4c0.8,0.3,4,1.4,7.1,4
							c0.8,0.7,4.5,3.8,4.9,6.9c0.4,3.1-2.7,4-3.8,4.3c-3.3,0.9-5.4-0.9-7.7-0.1c-0.5,0.2-0.8,0.4-1.1,0.7c-1.6,1.8-0.4,4-1.4,5.8
							c-1.3,2.3-5.9,2.2-8.6,1.6c-0.9-0.2-4.6-1.1-6.3-4.2c-1.7-2.9-1.3-7.3-2-10.2c0-0.1-0.2-0.7-0.3-1.5s-0.2-1.4-0.3-1.9
							c-0.9-5.2-10.8-12-14.3-14.7c-5.3-4.1-11.6-11.2-16.9-25C156.6,603.4,155.3,601.8,154.3,599.7z"/>
						
							<linearGradient id="SVGID_15_" gradientUnits="userSpaceOnUse" x1="186.4498" y1="664.9078" x2="186.4498" y2="584.3224" gradientTransform="matrix(1 0 0 1 0 -0.22)">
							<stop  offset="0" style="stop-color:#FFFFFF"/>
							<stop  offset="1" style="stop-color:#8E4C35"/>
						</linearGradient>
						<path class="st56" d="M201.1,664.7c-1.5,0-3-0.2-4-0.5c-4.6-1.1-6.8-3.6-7.9-5.4c-1.4-2.4-1.6-5.3-1.9-7.8
							c-0.1-1.1-0.2-2.2-0.4-3.1c-0.1-0.3-0.2-0.9-0.3-1.6l-0.3-1.9c-0.6-3.5-8.3-9.4-11.7-11.9l-1.7-1.3c-7.2-5.7-13-14-17.6-25.6
							c-1.4-1.5-2.5-3.1-3.3-4.8c-2.3-4.9-2.4-8.6-0.3-10.7c1.5-1.5,3.7-1.9,6.1-1.2c0.4-1.8,1.5-3.2,3-4.1c3.2-1.7,7.2,0,9.6,2.5
							c2.3,2.4,2.4,5,2.6,7.8c0.1,1.3,0.2,2.7,0.5,4.3c1.1,5.6,4.4,10.3,6.6,13.3c6,8.4,18.2,19.4,29,23.5c1.2,0.4,4.5,1.7,7.8,4.5
							c3.4,2.9,5.4,5.8,5.7,8.5c0.3,2-0.1,5.5-5.6,7c-2.3,0.7-4.3,0.3-5.6,0c-1-0.2-1.5-0.3-1.9-0.2c-0.3,0.3-0.3,0.6-0.3,1.6
							s0,2.4-0.8,3.8C207,664,203.9,664.7,201.1,664.7z M155.7,593.6c-0.2,0-0.3,0-0.4,0.1c-0.1,0.2-0.2,1.7,1.3,5l0,0
							c0.6,1.4,1.6,2.7,2.7,3.8c0.2,0.2,0.4,0.5,0.5,0.8c4.3,10.9,9.5,18.7,16.2,23.9l1.6,1.2c6.4,4.8,12.7,10,13.6,15.1l0.3,1.9
							c0.1,0.7,0.2,1.2,0.3,1.4c0.3,1.2,0.4,2.4,0.5,3.8c0.2,2.1,0.4,4.4,1.2,5.8c0.6,1,1.8,2.3,4.7,3c2.7,0.7,5.5,0.2,5.8-0.4
							c0.1-0.2,0.1-0.8,0.1-1.3c0-1.3,0-3.2,1.5-4.9c0.5-0.6,1.2-1.1,2.1-1.4c1.8-0.6,3.4-0.3,4.7-0.1c1.2,0.2,2.1,0.4,3.3,0.1
							c2.1-0.6,2-1.1,2-1.5c-0.1-0.5-0.6-2.4-4-5.3c-2.6-2.2-5.3-3.2-6.2-3.6c-12-4.5-24.9-16.1-31.4-25.3
							c-2.3-3.2-6.1-8.6-7.5-15.3c-0.4-2-0.5-3.6-0.6-5c-0.2-2.5-0.3-3.6-1.3-4.6c-1.2-1.2-2.9-1.9-3.6-1.5
							c-0.5,0.2-0.8,1.5-0.3,2.9c0.4,1,0,2.2-0.9,2.9s-2.1,0.6-3,0C157.6,593.9,156.3,593.6,155.7,593.6z"/>
					</g>
				</g>
				<g id="claws_2_">
					<g>
						<path id="first_10_" class="st15" d="M122.3,689.8c-6,2.1-9.8,9.3-7.6,16.3c1,2.3,3.9,8.4,10.7,12.6c10,6,20.4,3,22.1,2.5
							c-2.8-7.1-5.6-14.2-8.5-21.3C137.4,691.8,129.1,687.4,122.3,689.8z"/>
						<path class="st18" d="M139.2,724.9c-4.4,0-9.7-0.9-15-4.1c-7-4.2-10.4-10.4-11.7-13.7c-2.6-8.3,1.5-17,9.1-19.6
							c3.9-1.4,8.3-0.9,12.2,1.2c4.1,2.3,7,6.1,7.9,10.7l8.3,20.9c0.3,0.6,0.2,1.4-0.1,2s-0.9,1.1-1.5,1.3
							C146.8,724,143.5,724.9,139.2,724.9z M126.1,691.6c-1,0-2,0.2-3,0.5l0,0c-5,1.7-7.7,7.8-6,13.2c1.1,2.5,3.9,7.7,9.6,11.2
							c6.6,4,13.4,3.6,17.4,2.9l-7.4-18.7c-0.8-3.5-2.8-6.2-5.6-7.7C129.6,692.1,127.8,691.6,126.1,691.6z"/>
					</g>
					<g>
						<path id="second_10_" class="st15" d="M177.3,684.4c-6,2.1-9.8,9.3-7.6,16.3c1,2.3,3.9,8.4,10.7,12.6c10,6,20.4,3,22.1,2.5
							c-2.8-7.1-5.6-14.2-8.5-21.3C192.3,686.4,184,682,177.3,684.4z"/>
						<path class="st18" d="M194.1,719.5c-4.4,0-9.7-0.9-15-4.1c-7-4.2-10.4-10.4-11.7-13.7c-2.6-8.3,1.5-17,9.1-19.6
							c3.9-1.4,8.3-0.9,12.2,1.2c4.1,2.3,7,6.1,7.9,10.7l8.3,20.9c0.3,0.6,0.2,1.4-0.1,2s-0.9,1.1-1.5,1.3
							C201.8,718.6,198.4,719.5,194.1,719.5z M181.1,686.3c-1,0-2,0.2-3,0.5l0,0c-5,1.7-7.7,7.8-6,13.2c1.1,2.5,3.9,7.7,9.6,11.2
							c6.6,4,13.4,3.6,17.4,2.9l-7.4-18.7c-0.8-3.5-2.8-6.2-5.6-7.7C184.5,686.7,182.8,686.3,181.1,686.3z"/>
					</g>
					<g>
						<path id="third_8_" class="st15" d="M218.9,666.8c2.5-5.9,10-9.1,16.9-6.5c2.3,1.1,8.2,4.4,11.9,11.4
							c5.4,10.3,1.8,20.4,1.1,22.1c-7-3.2-13.9-6.5-20.9-9.7C220,681.9,216.1,673.3,218.9,666.8z"/>
						<path class="st18" d="M248.8,696.3c-0.4,0-0.7-0.1-1.1-0.2l-20.9-9.7c-4.1-1.1-7.8-4.2-9.8-8.4c-1.9-3.9-2.1-8.4-0.4-12.1
							c3.1-7.4,12.2-10.9,20.1-7.8c3.5,1.7,9.5,5.4,13.2,12.6c5.6,10.7,2.4,21.2,1.2,24.1c-0.2,0.7-0.8,1.2-1.4,1.4
							C249.4,696.3,249.1,696.3,248.8,696.3z M230.9,661.9c-4.1,0-8.1,2.2-9.6,5.9l0,0c-1,2.4-0.9,5.4,0.4,8c1.4,2.9,3.9,5,7,5.9
							l18.6,8.7c1-3.9,1.8-10.6-1.8-17.4c-3.1-5.9-8.1-9-10.8-10.4C233.4,662.1,232.1,661.9,230.9,661.9z"/>
					</g>
				</g>
			</g>
		</g>
	</g>
</g>
</svg>
